<svg xmlns="http://www.w3.org/2000/svg" width="26" height="21" fill="none"><g stroke="#fff" stroke-width="2"><path d="M6.07 18.986v-3.022l4.954 1.192-.105 1.83v.006a.017.017 0 0 1-.008.008H6.08a.016.016 0 0 1-.006-.004.017.017 0 0 1-.003-.005v-.005z"/><path d="M1.309 7.835l19.964-6.74c.461-.2.835-.074.835.28 0 0 2.69 5.85 2.69 8.786 0 2.92-2.69 8.785-2.69 8.785 0 .356-.376.48-.835.28 0 0-19.603-5.28-19.964-5.45-.362-.17-.46-5.74 0-5.94z" clip-rule="evenodd"/><path stroke-linecap="square" d="M21.451 1.509s-2.925 4.712-2.925 8.667c0 3.954 2.925 8.666 2.925 8.666"/></g></svg>