<svg viewBox="0 0 32 32" xmlns="http://www.w3.org/2000/svg">
  <circle cx="16" cy="16" r="16" fill="#067997"/>
  <path
    d="M20.77 17.83a1.09 1.09 0 0 0-.78.33l-2.09 2.1a2.62 2.62 0 0 1-3.74 0l-2.08-2.11a1.09 1.09 0 0 0-.78-.33 1.09 1.09 0 0 0-.78.33 2 2 0 0 0 0 2.85l4.12 4.17a2 2 0 0 0 1.4.59 2 2 0 0 0 1.4-.59L21.55 21a2 2 0 0 0 0-2.85 1.09 1.09 0 0 0-.78-.32zM25.91 11.61L22 7.63a1.83 1.83 0 0 0-1.31-.55 1.91 1.91 0 0 0-1.37.58L16 11l-3.18-3.29a1.83 1.83 0 0 0-1.31-.55 1.91 1.91 0 0 0-1.37.58l-4 4.06a2 2 0 0 0 0 2.73 1.07 1.07 0 0 0 1.49 0l2-2.05a2.57 2.57 0 0 1 1.84-.77 2.49 2.49 0 0 1 1.78.74l2 2a1 1 0 0 0 .56.29 1.08 1.08 0 0 0 1-.3l2-2.05a2.57 2.57 0 0 1 1.84-.77 2.49 2.49 0 0 1 1.78.74l2 2a1 1 0 0 0 .73.3 1.07 1.07 0 0 0 .76-.32 2 2 0 0 0-.01-2.73z"
    fill="#fff"/>
</svg>
