<svg xmlns="http://www.w3.org/2000/svg" viewBox="0 0 32 32"><circle cx="16" cy="16" r="16" fill="#067997"/><path d="M11.3 25.8c.3 0 .6-.1.8-.3l2.1-2.1c1-1 2.7-1 3.7 0l2.1 2.1c.2.2.5.3.8.3.3 0 .6-.1.8-.3.8-.8.8-2 0-2.8l-4.1-4.2c-.4-.4-.9-.6-1.4-.6-.5 0-1 .2-1.4.6l-4.1 4.2c-.8.8-.8 2 0 2.8.1.1.4.3.7.3zm14.6-14.2l-3.9-4c-.3-.4-.8-.6-1.3-.6s-1 .2-1.4.6L16 11l-3.2-3.3c-.3-.4-.8-.6-1.3-.6s-1 .2-1.4.6l-4 4.1c-.7.8-.7 2 0 2.7.4.4 1.1.4 1.5 0l2-2.1c.5-.5 1.1-.8 1.8-.8s1.3.3 1.8.7l2 2c.2.2.3.3.6.3.4.1.7 0 1-.3l2-2.1c.5-.5 1.1-.8 1.8-.8s1.3.3 1.8.7l2 2c.2.2.5.3.7.3.3 0 .6-.1.8-.3.7-.5.7-1.7 0-2.5z" fill="#fff"/></svg>