<svg fill="none" xmlns="http://www.w3.org/2000/svg" viewBox="0 0 159.5574 96.1911">
  <mask id="a" maskUnits="userSpaceOnUse" x="-1" y="0" width="1140" height="124">
    <rect y="1" width="1138" height="122" rx="5" fill="#fff" stroke="#b5bfc7" stroke-width="2"/>
  </mask>
  <g mask="url(#a)" transform="translate(-76.0782 -14.4886)">
    <path d="M229.756 76.6062 191.56 103.791l-37.708-27.1848V16h75.904z" fill="#c6a85f" stroke="#fbae28" stroke-width="2.7316" stroke-miterlimit="10" stroke-linecap="round" stroke-linejoin="round"/>
    <path d="m158.14 75.1446 36.637 26.4054 34.98-24.9438V16H158.14Z" fill="#f8d277"/>
    <path opacity=".4" d="m156.873 84.7913-5.164-3.8001M175.777 98.4319l-14.226-10.3284M234.628 30.3232v20.7543M234.628 16v6.7232" stroke="#b6bfc7" stroke-width="2.0152" stroke-miterlimit="10" stroke-linecap="round" stroke-linejoin="round"/>
    <path d="M229.756 76.6062 191.56 103.791l-37.708-27.1848V16h75.904z" stroke="#153150" stroke-width="3.0229" stroke-miterlimit="10" stroke-linecap="round" stroke-linejoin="round"/>
    <path opacity=".2" d="M215.32 58.3886c.027-14.5834-11.774-26.427-26.357-26.4535-14.584-.0265-26.428 11.7741-26.454 26.3576-.027 14.5834 11.774 26.427 26.358 26.4535 14.583.0265 26.427-11.7742 26.453-26.3576z" fill="#000"/>
    <path d="M217.673 53.4035c.027-14.4219-11.643-26.1345-26.065-26.1607-14.422-.0262-26.135 11.6438-26.161 26.0658-.026 14.422 11.644 26.1345 26.066 26.1607 14.422.0262 26.134-11.6438 26.16-26.0658z" fill="#fff" stroke="#153150" stroke-width="2.0152" stroke-miterlimit="10" stroke-linecap="round" stroke-linejoin="round"/>
    <path d="M217.967 53.4033c.026-14.5834-11.775-26.4271-26.358-26.4536-14.583-.0265-26.427 11.7742-26.454 26.3576-.026 14.5834 11.775 26.4271 26.358 26.4536 14.583.0265 26.427-11.7742 26.454-26.3576z" fill="#fff"/>
    <path d="M217.673 53.4035c.027-14.4219-11.643-26.1345-26.065-26.1607-14.422-.0262-26.135 11.6438-26.161 26.0658-.026 14.422 11.644 26.1345 26.066 26.1607 14.422.0262 26.134-11.6438 26.16-26.0658z" stroke="#153150" stroke-width="2.8375" stroke-miterlimit="10" stroke-linecap="round" stroke-linejoin="round"/>
    <path d="m191.756 46.5957 2.631 3.8975 4.384 1.559" stroke="#fff" stroke-width="2.7316" stroke-miterlimit="10" stroke-linecap="round" stroke-linejoin="round"/>
    <path d="m201.763 69.7873-10.126-4.0008-10.125 3.1117.111-10.6688-6.565-8.8907 10.237-2.6672 6.12-8.5572 6.12 9.1129 10.348 3.5563-6.453 8.335z" fill="#f8d277"/>
    <path d="M201.764 70.8989c-.112 0-.223 0-.446-.1112l-9.792-3.7785-9.68 3.0006c-.334.1111-.668 0-1.002-.2223-.334-.2223-.445-.5557-.445-.8891l.111-10.3354-6.342-8.5573c-.223-.3334-.334-.6668-.112-1.0002.112-.3334.445-.6668.779-.6668l9.904-2.556 5.786-8.2239c.222-.3334.556-.4445.89-.4445.334 0 .668.2222.89.4445l6.009 8.7795 9.903 3.4452c.334.1111.557.4445.668.7779.111.3334 0 .6668-.222 1.0002l-6.232 7.8905.334 10.3354c0 .3334-.111.7779-.445.8891-.111.2222-.334.2223-.556.2223zm-10.126-6.2235c.111 0 .222 0 .445.1111l8.568 3.334-.334-9.1129c0-.2223.111-.5557.223-.6668l5.452-7.0015-8.791-3.0006c-.222-.1111-.445-.2222-.556-.4445l-5.341-7.7793-5.119 7.2236c-.111.2223-.334.3334-.667.4446l-8.68 2.2226 5.564 7.5571c.111.2223.222.4446.222.6668v9.2241l8.68-2.6672c.111 0 .222-.1111.334-.1111z" fill="#c6a85f"/>
    <path d="M98.6747 62.8269s-9.0696-2.9522-9.6206-12.226c-.551-9.2738-.6415-13.5871-4.9397-13.0024-4.2982.5847-2.7111 12.2292.9879 18.7027s8.6047 9.9922 12.6087 11.1219" fill="#fff"/>
    <path d="m97.8159 68.1095-.2687.0366c-4.8527-1.2939-9.573-5.3968-13.0583-11.3424-2.8262-5.1979-4.8354-14.1352-2.9433-18.0209.5098-1.1858 1.3694-1.8609 2.4445-2.0071 1.3438-.1827 2.3452.0998 3.1185.6924 1.8962 1.6959 2.215 5.6996 2.5157 12.3573l.081.5472c.4702 8.728 9.1207 11.5987 9.1207 11.5987.289.1003.6186.4741.4106.9211-.0938.2919-.4565.6203-.9001.4015-.1344.0183-9.5176-3.1715-10.1296-12.8571l-.0811-.5472c-.354-6.0922-.5384-10.1142-2.1051-11.4363-.3093-.237-1.0015-.2824-1.9421-.1545-.5376.0731-1.0346.4198-1.3364 1.1586-1.4559 3.1286-.0855 11.4551 3.0094 16.6164 3.3104 5.6902 7.7215 9.5561 12.1507 10.768.4234.082.6186.4741.5247.766-.0938.2918-.3423.4652-.6111.5017z" fill="#153150"/>
    <path d="M126.163 102.601c-1.997.554-5.957.953-7.975 1.369-3.492.759-1.144 5.387 5.296 3.944 2.017-.416 4.768-1.498 6.004-2.515.849-.822 1.18-3.271-3.325-2.798z" fill="#fff"/>
    <path d="M122.499 108.749c-2.852.388-4.782-.479-5.76-1.475-.666-.757-.925-1.569-.62-2.316.21-.452.631-1.357 2.125-1.56.815-.111 2.016-.416 3.239-.582 1.766-.24 3.531-.481 4.733-.786l.136-.018c3.009-.268 4.123.709 4.382 1.521.415.932.015 1.975-.603 2.483-1.371 1.033-4.121 2.114-6.273 2.548-.544.074-.951.129-1.359.185zm3.902-5.473c-1.202.305-3.104.564-4.849.942-1.223.167-2.309.315-3.104.564-.543.074-.909.406-1.004.702-.095.295.102.692.415.931.822.877 2.731 1.605 5.658.783 2.017-.415 4.631-1.477 5.751-2.336.115-.156.325-.609.285-.885-.49-.499-1.387-.941-3.152-.701z" fill="#153150"/>
    <path d="M125.851 89.575c-.111 2.9428.355 8.8736.064 13.374.027 1.112 2.383 1.348 2.356.237 0 0 1.13-9.913 1.201-13.129.071-3.2161-3.663-3.5431-3.621-.482z" fill="#ffd168"/>
    <path d="M127.652 104.529c-.537.073-1.093.009-1.556-.346-.463-.356-.792-.729-.738-1.294.132-2.808.049-6.1433-.108-9.0507.006-1.8137-.062-3.199-.11-4.4476-.015-1.9505 1.224-2.8166 2.471-2.7076 1.247.1091 2.636 1.1751 2.671 3.2622-.071 3.2173-1.13 12.7057-1.204 13.1337.061.41-.281.875-.663 1.067-.361.328-.629.364-.763.383zm-1.111-14.9108c.028 1.1119-.018 2.6522.09 4.3109.023 2.9256.24 6.2429-.026 9.0689 0 0 .02.136.154.118.422.082.69.046.824.027-.02-.136 1.133-9.9162 1.204-13.1335-.048-1.2486-.685-1.8591-1.242-1.9228-.402.0548-1.032.4195-1.004 1.5315z" fill="#153150"/>
    <path d="M141.204 103.637c1.77.743 5.344 1.523 7.29 2.524 3.602 1.9.839 5.648-5.638 3.014-1.906-.726-3.208-1.111-4.517-2.479-1.289-1.23-1.604-4.279 2.865-3.059z" fill="#fff"/>
    <path d="M147.772 110.615c-1.355.184-3.179.01-5.261-.972l-.874-.302c-1.478-.643-2.78-1.028-3.933-2.276-.821-.872-1.297-2.213-.626-3.287.44-.762 1.557-1.616 4.296-.864l.136-.018c.739.321 1.905.725 3.051.99 1.593.487 3.187.973 4.238 1.533 1.946 1 2.171 2.515 1.887 3.396-.535 1.056-1.423 1.598-2.914 1.8zm-8.715-6.544c-.407.056-.657.23-.772.386-.21.45.048 1.258.38 1.634.977.992 2.008 1.414 3.466 1.918l.874.303c3.675 1.468 5.918.742 6.338-.158.21-.45-.299-1.083-1.194-1.523-1.051-.56-2.489-.927-3.946-1.432-1.166-.403-2.448-.651-3.207-1.11-.834-.027-1.532-.073-1.939-.018z" fill="#153150"/>
    <path d="M138.843 90.9285c-.091 3.0786.775 8.9531.772 13.5525.007.975 2.36 1.211 2.353.237 0 0 .553-10.1107.645-13.1893.091-3.0786-3.659-3.5422-3.77-.6002z" fill="#ffd168"/>
    <path d="M141.347 106.06c-.536.073-1.226.028-1.688-.328-.462-.355-.657-.747-.717-1.157.058-2.378-.232-5.2661-.461-7.7444-.189-2.205-.358-4.2733-.313-5.8131-.027-1.1116.521-2.0229 1.284-2.4058.763-.3829 1.587-.3558 2.337.0996.904.5738 1.468 1.6124 1.382 2.8789-.072 3.2165-.513 13.1758-.627 13.3308.061.41-.28.874-.662 1.066-.134.018-.267.036-.535.073zm-1.046-1.531s.154.119.442.219c.288.1.536-.073.536-.073s.575-9.9774.512-13.1755c.013-.8383-.202-1.3667-.798-1.7037-.308-.2368-.71-.1821-.957-.0089-.382.1915-.589.638-.622 1.3396-.066 1.4032.103 3.4715.292 5.6764.343 2.3234.633 5.2121.595 7.7261z" fill="#153150"/>
    <path d="M100.353 36.6452c-.002-2.8131 2.079-4.6431 4.969-4.7541 9.909-.361 45.168 1.3218 59.163 2.3756 2.523.22 4.885 2.1499 4.813 5.3951-.039 2.5373-.196 9.8735-.196 9.8735l-.021-.1379-.164 16.6212-69.4998-2.0972z" fill="#0dbaec"/>
    <path d="m169.812 52.7848-1.399-.0919.133-13.1402c-.022-2.96-2.054-4.5179-4.152-4.6557-13.019-.9097-48.902-2.8003-59.074-2.263-2.621.0745-4.317 1.7162-4.377 4.123.062.4149-.305.747-.732.6641-.4079.0554-.7409-.3226-.6665-.756.0927-3.1168 2.3865-5.4042 5.5715-5.4142 10.464-.436 46.347 1.4547 59.344 2.226 2.798.1838 5.475 2.3593 5.485 6.1677zm-4.467-7.717c-.564-.0645-.74-.3226-.802-.7375l.088-1.2818c.005-1.835-1.483-3.4668-3.446-3.6231-12.964-1.4814-39.578-2.5168-53.654-2.1537-1.243.028-2.227.8674-2.199 1.9924l.056 2.2499c.061.415-.305.747-.733.6641-.407.0555-.74-.3225-.666-.7559l.08-2.2685c.005-1.835 1.586-3.32 3.508-3.4403 14.077-.3632 40.826.6538 53.79 2.1351 2.683.3406 4.66 2.4702 4.642 5.1535l-.087 1.2818c.061.415-.169.7285-.577.784z" fill="#153150"/>
    <path opacity=".1" d="M104.736 39.1953s41.926 1.2221 60.031 1.7273c2.393.2404 4.324 1.1111 4.226 6.0878 0 0-.138-2.8173-6.943-2.8805-6.806-.0632-56.789-2.312-56.789-2.312-6.3305-1.5461-5.6884-6.5971.663-4.912-1.406 1.7519-1.188 2.2894-1.188 2.2894z" fill="#153150"/>
    <path d="M168.907 65.0122c3.013.9832 3.592-3.4175 3.688-8.31.019-2.6513-1.416-4.9651-3.511-6.2127z" fill="#0d88ca"/>
    <path d="M169.984 65.8452c-.402.0548-.824-.0272-1.247-.1091-.288-.1002-.463-.3554-.503-.6288l.177-14.5291c-.041-.2734.073-.4284.321-.6017.248-.1732.536-.073.691.0454 2.408 1.4852 3.886 4.0734 3.888 6.8625-.097 4.8947-.786 7.6385-2.14 8.6597-.268.0365-.65.228-1.187.3011zm-.47-1.3307c.402-.0548.536-.073.784-.2463.992-.693 1.567-3.2817 1.611-7.6113.005-1.8138-.814-3.6548-2.223-4.8576z" fill="#153150"/>
    <path d="M163.366 94.0507c-21.015.7472-38.268-.1372-59.035-2.3674-2.945-.3016-4.5711-2.8846-4.7622-5.1016-1.0267-15.2807-1.1951-32.2198.7002-50.1397-.052 3.3713 2.42 5.1389 4.803 5.3765 20.103 1.4791 39.542 2.2072 59.035 2.3673 1.394.0913 2.579.6315 3.419 1.639.82.8701 1.43 2.1892 1.363 3.6 0 0-.234 30.0307-.545 40.0257-.174 2.5469-2.095 4.4895-4.978 4.6002z" fill="#0dbaec"/>
    <path d="m164.145 94.6455-.676.0918c-19.485.8201-36.582.0549-59.033-2.3672-3.371-.3839-5.1737-3.2233-5.4057-5.715-1.2586-17.7718-1.0747-34.1972.524-50.394.0741-.4305.3244-.6047.7307-.6597.426.0823.602.3388.664.751.022 2.9406 2.182 4.4699 4.138 4.6252 20.103 1.4791 39.406 2.2255 58.898 2.3856 1.53.0729 2.87.7321 4.001 1.8403.996 1.1266 1.627 2.583 1.56 3.9938.041.2748-.214 30.1667-.545 40.0238-.113 2.959-2.013 5.039-4.856 5.4244zm-63.634-54.7294c-1.3759 14.905-1.432 30.3319-.242 46.7112.15 1.942 1.445 4.1495 4.118 4.4878 22.317 2.4404 39.393 3.0683 58.878 2.2481 2.477-.0555 4.167-1.6866 4.362-4.0959.331-9.8572.451-39.7307.545-40.0239-.028-1.1176-.462-2.1802-1.146-3.0686-.819-.8701-1.849-1.2912-2.972-1.4192-19.492-.1601-38.796-.9065-59.033-2.3672-1.665-.0546-3.453-.9336-4.51-2.4723z" fill="#153150"/>
    <path d="M163.254 91.8433c-.267.0365-.4.0548-.667.0912-.4.0548-.726-.3184-.653-.7463-.061-.4097.299-.7375.719-.6557.686.0453 1.333-.1824 1.805-.6651.473-.4826.793-1.0836.692-1.7663-.06-.4097.3-.7376.72-.6557.399-.0548.726.3184.653.7463.028 1.1107-.385 2.0031-1.104 2.6587-.74.5192-1.366.8835-2.165.9929zm3.175-41.2518c-.134.0183-.134.0183 0 0-.554-.0636-.727-.3184-.787-.7281.065-1.4021-1.069-2.64-2.421-2.5941-.4.0547-.727-.3185-.654-.7464-.06-.4097.319-.6009.719-.6557 2.06.1361 3.807 1.8472 3.729 4.0869-.093.2913-.32.6009-.586.6374z" fill="#153150"/>
    <path opacity=".1" d="M170.206 75.0821c-.137 7.4571-24.252 10.7284-24.045-2.7733.253-15.0518 19.701-7.8655 24.231-10.866 0 0-.06 9.8327-.186 13.6393z" fill="#153150"/>
    <path d="m165.49 78.379-7.023.1116c-9.23.1305-9.207-14.5867.158-14.7355l7.023-.1117c3.715-.0833 6.71-3.152 6.68-7.0717l-.061-.4121.038 15.1293c-.105 3.938-3.1 7.0068-6.815 7.0901z" fill="#0dbaec"/>
    <path d="m166.404 78.9567-.947.1285-7.023.1116c-5.109-.0079-7.48-3.8905-7.625-7.6547-.071-4.1946 2.49-8.3257 7.734-8.3362l7.024-.1116c3.309-.0283 6.054-2.9231 6.085-6.4308l-.061-.4122c-.061-.4121.304-.7419.73-.6596.406-.055.738.3204.664.7509l-.253 15.0293c.166 3.9015-2.674 7.0894-6.328 7.5848zm-8.645-14.5233c-3.653.4954-5.525 3.6922-5.462 6.9069.063 3.2146 2.042 6.3097 6.183 6.3087l7.023-.1116c3.309-.0283 6.054-2.9231 6.085-6.4309l.135-10.2484c-1.359 2.006-3.516 3.2796-6.013 3.1978l-7.024.1116c-.385.1925-.656.2292-.927.2659z" fill="#153150"/>
    <path d="M162.426 71.0908c.097-4.9149-6.922-4.8034-7.02.1116-.118 4.7776 6.901 4.666 7.02-.1116z" fill="#ffd168"/>
    <path d="M159.343 75.4311c-.946.1283-1.934-.0179-2.847-.5943-1.224-.8142-1.969-2.1137-1.923-3.6605.026-1.6841.789-3.048 2.195-3.7989 1.406-.7509 3.069-.6964 4.294.1179 1.225.8143 1.969 2.1138 1.923 3.6606-.026 1.6841-.789 3.048-2.195 3.7989-.385.1923-.906.4029-1.447.4763zm-.81-7.3128c-.405.055-.676.0917-1.061.284-.886.5402-1.439 1.4556-1.412 2.5722-.066 1.4096.597 2.1599 1.199 2.4984.914.5764 2.016.567 2.901.0268.886-.5403 1.44-1.4557 1.412-2.5723.066-1.4095-.597-2.1599-1.199-2.4984-.447-.2195-1.164-.4024-1.84-.3107zM169.913 73.4879c-.556-.0636-.73-.3187-.79-.7286l.129-5.594c-.06-.4099.301-.738.723-.6561.401-.0548.729.3187.656.7469l-.13 5.5939c.041.2734-.187.5832-.588.6379zM120.352 60.36c-.136.0184-.407.0554-.563-.0643-.313-.2394-.374-.6538-.144-.967 1.038-1.4094 2.721-2.2019 4.411-2.0089.428.0828.74.3222.666.7551-.075.4329-.305.746-.733.6633-1.263-.1102-2.423.4703-3.25 1.4283 0 0-.251.175-.387.1935z" fill="#153150"/>
    <path d="M125.965 62.3262c.077-1.2199-.838-2.2888-2.044-2.3874-1.206-.0986-2.246.8105-2.323 2.0304-.077 1.22.838 2.2888 2.044 2.3874 1.206.0985 2.246-.8104 2.323-2.0304z" fill="#1e324d"/>
    <path d="M124.206 64.9738c-.136.0183-.406.055-.541.0734-.697-.0456-1.434-.3658-1.942-.9973-.508-.6314-.745-1.2995-.732-2.1416.033-.7048.337-1.4463.952-1.9499s1.271-.7325 2.103-.7053c.696.0456 1.434.3658 1.941.9972.508.6315.745 1.2996.732 2.1417-.201 1.4279-1.296 2.4167-2.513 2.5818zm-.632-4.2561c-.271.0367-.521.2107-.771.3847-.25.1739-.46.6225-.534 1.0527-.074.4302.102.6865.299 1.08.176.2562.622.4758 1.048.5581.832.0272 1.447-.4763 1.46-1.3184.074-.4303-.102-.6865-.298-1.08-.197-.3936-.623-.4758-1.049-.5581-.02-.1373-.155-.119-.155-.119z" fill="#153150"/>
    <path d="M123.988 61.4789c.029-.4574-.315-.8582-.767-.8952-.452-.0369-.842.3039-.871.7614-.029.4574.314.8583.766.8952.453.037.843-.3039.872-.7614z" fill="#fff"/>
    <path d="M146.363 62.5283c-.271.0367-.562-.0639-.758-.4574-.589-1.1804-1.543-2.0312-2.801-2.1407-.426-.0823-.622-.4757-.663-.7503.074-.4301.459-.6224.73-.6591 1.704.3291 3.24 1.3811 3.89 2.9733.196.3934-.013.8419-.419.8969.156.119.021.1373.021.1373z" fill="#153150"/>
    <path d="M144.37 63.7412c.077-1.2199-.838-2.2887-2.044-2.3874-1.206-.0984-2.247.8105-2.323 2.0304-.078 1.2199.838 2.2887 2.044 2.3873 1.206.0985 2.246-.8105 2.323-2.0303z" fill="#1e324d"/>
    <path d="m142.62 66.392-.541.0734c-.697-.0456-1.434-.3658-1.942-.9973-.507-.6314-.744-1.2996-.732-2.1417.047-1.5469 1.392-2.7097 3.055-2.6552.697.0456 1.434.3658 1.942.9972.508.6315.745 1.2996.732 2.1417-.033.7049-.337 1.4463-.952 1.9499-.5.348-1.021.5586-1.562.632zm-.632-4.2561c-.676.0917-1.156.5769-1.189 1.2817-.074.4302.102.6865.298 1.08.196.3936.623.4759 1.049.5581.426.0823.676-.0917 1.061-.284.385-.1923.46-.6225.534-1.0527.074-.4303-.102-.6865-.299-1.0801-.311-.2379-.622-.4758-1.048-.5581l-.406.0551z" fill="#153150"/>
    <path d="M142.539 62.7661c.029-.4575-.314-.8583-.767-.8953-.452-.0368-.842.304-.871.7614-.029.4576.315.8584.767.8953.452.037.842-.304.871-.7614z" fill="#fff"/>
    <path d="M140.442 69.205c.021.1379-.64 5.0114-4.682 6.6858-.909.4048-1.994.5522-3.1.5617l-.407.0553c-1.105.0094-1.981-.2938-2.856-.597-4.845-1.8745-4.964-7.3455-4.964-7.3455z" fill="#1e324d"/>
    <path d="M133.985 76.975c-.406.0552-.949.1289-1.376.0463-.136.0184-.271.0368-.427-.0826-1.106.0095-2.116-.2751-2.991-.578-5.135-1.974-5.451-7.8352-5.492-8.1108-.02-.1378.074-.4318.19-.588.115-.1562.386-.193.522-.2114l16.023.7769c.136-.0184.427.0826.448.2204.156.1194.197.395.217.5328.041.2756-.579 5.4204-5.026 7.1487-.596.6432-1.274.7353-2.088.8457zm-8.766-7.8068c.225 1.5158 1.122 4.7678 4.351 6.0164.739.3214 1.594.4866 2.563.4955l.407-.0552c1.105-.0095 2.055-.1383 2.963-.5428 2.745-1.0755 3.713-3.8778 4.051-5.3294z" fill="#153150"/>
    <path d="M136.405 73.8145c-.169.7242-.358 1.311-.662 2.0535-.907.4036-1.991.5505-3.094.56-.136.0183-.271.0367-.407.0551-1.103.0094-1.977-.2929-2.851-.5952.67-1.0726 1.183-2.2644 1.541-3.5753.453-1.6043 1.996-2.3747 3.432-2.0084 1.571.348 2.493 1.9061 2.041 3.5103z" fill="#5bbae6"/>
    <path d="M133.97 76.9515c-.406.0551-.947.1285-1.374.0462-.135.0183-.271.0367-.426-.0824-1.104.0095-2.113-.2743-2.986-.5764-.156-.1191-.311-.2382-.488-.4947-.04-.2748-.061-.4122.054-.568.669-1.0721 1.183-2.2633 1.426-3.4177.547-1.8967 2.455-2.9966 4.316-2.5481 1.862.4485 3.001 2.5371 2.589 4.4154-.168.7238-.472 1.466-.641 2.1898-.115.1558-.23.3116-.365.3299-.616.5041-1.293.5959-2.105.706zm-3.555-1.6208c.582.2015 1.144.2655 1.821.1737l.406-.0551c.968.0089 1.916-.1196 2.572-.3488.189-.5864.399-1.0354.588-1.6218.189-.5864.107-1.1361-.245-1.6491-.353-.5129-.684-.8885-1.267-1.0899-1.144-.2654-2.301.3121-2.544 1.4665-.378 1.1728-.776 2.2082-1.331 3.1245z" fill="#153150"/>
    <path d="M132.717 76.9579c-.134.0183-.269.0366-.425-.0821-.31-.2374-.506-.6301-.277-.9407.303-.74.471-1.4616.639-2.1833.074-.4293.458-.6212.883-.5391.425.0821.621.4748.547.9042-.127.9956-.43 1.7356-.847 2.6308 0 0-.25.1736-.52.2102zM92.7448 44.1355c-.4012.0547-.7291-.3187-.7896-.7286.1148-7.5423-3.1295-9.1903-3.1496-9.3269-.2876-.1001-.3481-.51-.2547-.8015.2271-.3098.6081-.5012.9158-.2644.1539.1184 3.9935 2.1032 3.8661 10.4836.0604.4099-.1868.583-.588.6378zM95.8237 41.3235c-.4005.0547-.7279-.3186-.7883-.7284.0234-4.4622-1.0722-5.4272-1.0722-5.4272-.3073-.2367-.3677-.6465-.1409-.9562.2267-.3097.6273-.3644.9345-.1277.3073.2367 1.7102 1.4384 1.654 6.6018.0402.2732-.32.6012-.5871.6377zM77.0137 43.8521c-.4024.0548-.7111-.1821-.7718-.5923-.6141-5.0771.6793-6.5085.9273-6.6818.2481-.1732.6505-.228.9794.1456.1543.1185.215.5287-.1469.8569 0 0-1.0454 1.2582-.4185 5.4967.0607.4101-.1671.7201-.5695.7749z" fill="#153150"/>
    <path d="m118.976 82.4454-6.008 3.8808-5.509-4.4075.474-9.2429 11.516.5267z" fill="#ffc936" stroke="#fbae28" stroke-width=".3736" stroke-miterlimit="10" stroke-linecap="round" stroke-linejoin="round"/>
    <path d="m108.122 81.7264 5.352 4.281 5.501-3.5612.474-9.2422-10.865-.497z" fill="#ffd168"/>
    <path opacity=".4" d="m107.845 83.1625-.756-.6156M110.619 85.3783l-2.08-1.6762M120.085 75.4502l-.153 3.1574M120.191 73.2715l-.05 1.0228" stroke="#b6bfc7" stroke-width=".2756" stroke-miterlimit="10" stroke-linecap="round" stroke-linejoin="round"/>
    <path d="m118.976 82.4454-6.008 3.8808-5.509-4.4075.474-9.2429 11.516.5267z" stroke="#153150" stroke-width=".4134" stroke-miterlimit="10" stroke-linecap="round" stroke-linejoin="round"/>
    <path opacity=".2" d="M116.927 79.566c.118-2.2246-1.581-4.1134-3.794-4.2187-2.214-.1053-4.104 1.6128-4.222 3.8375-.118 2.2246 1.581 4.1134 3.794 4.2187 2.214.1053 4.104-1.6128 4.222-3.8375z" fill="#000"/>
    <path d="M117.322 78.8251c.117-2.2-1.563-4.0679-3.752-4.172-2.189-.1041-4.058 1.595-4.175 3.795-.117 2.2 1.563 4.0679 3.752 4.1721 2.189.1041 4.058-1.595 4.175-3.7951z" fill="#fff" stroke="#153150" stroke-width=".2756" stroke-miterlimit="10" stroke-linecap="round" stroke-linejoin="round"/>
    <path d="M117.366 78.8268c.118-2.2247-1.58-4.1135-3.794-4.2188-2.213-.1053-4.103 1.6128-4.222 3.8375-.118 2.2247 1.581 4.1135 3.795 4.2188 2.213.1052 4.103-1.6129 4.221-3.8375z" fill="#fff"/>
    <path d="M117.322 78.8251c.117-2.2-1.563-4.0679-3.752-4.172-2.189-.1041-4.058 1.595-4.175 3.795-.117 2.2 1.563 4.0679 3.752 4.1721 2.189.1041 4.058-1.595 4.175-3.7951z" stroke="#153150" stroke-width=".388" stroke-miterlimit="10" stroke-linecap="round" stroke-linejoin="round"/>
    <path d="m113.44 77.6094.37.6128.654.2683" stroke="#fff" stroke-width=".3736" stroke-miterlimit="10" stroke-linecap="round" stroke-linejoin="round"/>
    <path d="M115.149 77.2849v.0002c.387.4455.351 1.141-.079 1.5492v.0001l-1.744 1.6566-1.566-1.809v-.0001c-.386-.4455-.35-1.1411.08-1.5492v-.0001c.372-.3542.942-.3283 1.278.0585v.0001l.262.3028.094.1081.105-.0989.292-.2764v-.0003c.372-.3543.944-.3282 1.278.0584z" fill="#f170be" stroke="#d1176f" stroke-width=".2748"/>
    <path fill-rule="evenodd" clip-rule="evenodd" d="M113.514 79.4448c-.347-.1069-.573-.1848-.718-.3345-.144-.1497-.215-.399-.291-.7825-.122.4002-.221.6479-.416.7966-.154.1144-.371.1489-.697.2155.718.2202.86.3775 1.01 1.1137.219-.7161.376-.8589 1.112-1.0088z" fill="#ffd168"/>
    <path d="M112.396 80.5652a.111.111 0 0 1-.106-.0875c-.142-.6974-.256-.8226-.937-1.0334a.1083.1083 0 0 1-.075-.1096.1086.1086 0 0 1 .085-.1017c.697-.1431.822-.2567 1.033-.9381a.109.109 0 0 1 .113-.0768.11.11 0 0 1 .106.0874c.143.6975.256.8226.937 1.0334a.1105.1105 0 0 1 .076.1096.1109.1109 0 0 1-.086.1018c-.697.143-.822.2566-1.033.938a.109.109 0 0 1-.113.0769zm-.622-1.2048a.9858.9858 0 0 1 .646.7097.9858.9858 0 0 1 .712-.6461.9867.9867 0 0 1-.646-.7131.9881.9881 0 0 1-.712.6495z" fill="#ffbd09"/>
    <path fill-rule="evenodd" clip-rule="evenodd" d="M115.457 77.5266c-.476-.1461-.571-.2473-.671-.7396-.071.2294-.124.3981-.222.4943-.098.0963-.265.1255-.517.177.476.1471.571.2472.67.7405.069-.2239.12-.3883.215-.4836.094-.0953.266-.1353.525-.1886z" fill="#ffd168"/>
    <path d="M114.713 78.3081a.1101.1101 0 0 1-.106-.0875c-.088-.4434-.158-.5225-.595-.6578a.1096.1096 0 0 1 .01-.2114c.448-.0881.522-.1592.656-.5973a.1102.1102 0 0 1 .114-.0768.1088.1088 0 0 1 .105.0874c.088.4489.159.5226.597.6579a.1085.1085 0 0 1 .075.1096.1085.1085 0 0 1-.086.1018c-.443.0883-.523.1591-.657.5972a.109.109 0 0 1-.113.0769zm-.314-.8331a.6448.6448 0 0 1 .336.372.6467.6467 0 0 1 .371-.3378.6437.6437 0 0 1-.337-.3708.636.636 0 0 1-.37.3366z" fill="#ffbd09"/>
  </g>
</svg>
