<svg xmlns="http://www.w3.org/2000/svg" fill="none" viewBox="0 0 196 171">
  <path fill="#D3E6F2"
        d="M1.401 107.095c-15.635 62.513 103.061 98.296 182.618 15.628 29.582-30.738-2.733-46.341-20.638-67.514-58.163-68.765-115.075-70.015-127.583-21.88-13.17 50.692-28.062 48.423-34.397 73.766z"
        opacity=".3"/>
  <path fill="#fff" stroke="#163050" stroke-linecap="round" stroke-linejoin="round" stroke-width="1.326"
        d="M87.537 122.317c-2.695.819-8.13 1.55-10.913 2.207-4.76 1.119-1.426 7.364 7.292 5.001 2.658-.713 6.548-2.182 8.218-3.582 1.17-.963 1.564-4.395-4.597-3.626z"/>
  <path fill="#FFD167" stroke="#163050" stroke-linecap="round" stroke-linejoin="round" stroke-width="1.326"
        d="M86.637 104.563c0 4.095.625 12.065.412 18.36 0 1.525 3.309 1.701 3.309.175 0 0 1.445-13.59 1.445-17.972 0-4.383-5.166-4.658-5.166-.563z"/>
  <path fill="#fff" stroke="#163050" stroke-linecap="round" stroke-linejoin="round" stroke-width="1.326"
        d="M108.038 123.379c2.433 1.001 7.468 1.92 10.088 3.126 5.053 2.351 1.195 7.614-7.755 4.264-2.658-.994-4.515-1.451-6.342-3.207-1.563-1.488-2.151-5.608 4.009-4.183z"/>
  <path fill="#FFD167" stroke="#163050" stroke-linecap="round" stroke-linejoin="round" stroke-width="1.326"
        d="M104.523 106.132c0 4.12 1.201 12.178 1.301 18.523 0 1.369 3.309 1.544 3.309.175 0 0 .575-13.753.575-18.129 0-4.376-5.185-4.714-5.185-.569z"/>
  <path fill="#02BAEC"
        d="M50.008 35.492c0-3.75 2.796-6.808 6.71-7.545 13.59-3.582 62.222-3.545 81.391.337a7.91 7.91 0 0 1 6.717 7.914v35.677a366.187 366.187 0 0 0-95.75.581l.932-36.964z"/>
  <path stroke="#163050" stroke-linecap="round" stroke-linejoin="round" stroke-width="1.326"
        d="M139.465 42.044v-1.8c0-3.127-2.546-5.79-5.673-6.334-18.212-3.75-55.31-3.807-73.922-.187a4.46 4.46 0 0 0-3.822 4.238V41m-6.041-5.507c0-3.75 2.795-6.808 6.71-7.545 13.59-3.582 62.222-3.545 81.391.337a7.903 7.903 0 0 1 6.716 7.914V53.99L50.007 35.492z"/>
  <path fill="#163050"
        d="M56.061 37.993c0 .106 14.34-1.963 31.864-2.395 17.512-.625 38.2.363 50.614 1.832 3.265.538 5.904 1.994 5.904 8.708 0 0-.306-3.863-9.637-4.595-4.635-.431-24.203-2.219-42.572-1.95-18.374-.044-35.541 1.957-35.516 1.875-8.756-.625-7.862-7.726.894-6.732-1.864 2.556-1.55 3.257-1.55 3.257z"
        opacity=".1"/>
  <path fill="#08C" stroke="#163050" stroke-linecap="round" stroke-linejoin="round" stroke-width="1.326"
        d="M144.807 71.3c4.102 1.663 5.003-4.126 5.003-10.921 0-3.564-2.114-6.99-5.003-9.002V71.3z"/>
  <path fill="#02BAEC" stroke="#163050" stroke-linecap="round" stroke-linejoin="round" stroke-width="1.326"
        d="M138.115 109.883c-28.969-.944-52.797-1.319-81.39-.338-4.078.169-6.323-2.856-6.598-5.907a379.873 379.873 0 0 1-.119-68.377c0 4.5 3.352 6.476 6.71 6.251a511.647 511.647 0 0 1 81.391.338 7.555 7.555 0 0 1 4.753 2.563 7.697 7.697 0 0 1 1.964 5.038s.287 40.96 0 54.556c-.069 3.582-2.671 6.032-6.711 5.876z"/>
  <path stroke="#163050" stroke-linecap="round" stroke-linejoin="round" stroke-width="1.326"
        d="M136.776 106.482a3.832 3.832 0 0 0 3.092-.933 3.823 3.823 0 0 0 1.286-2.961m0-52.318a5.083 5.083 0 0 0-4.378-4.932l4.378 4.932z"/>
  <path fill="#163050" d="M147.14 85.14c.031 9.77-33.103 12.221-33.147-5.564 0-20.792 27.055-9.902 33.147-12.984V85.14z"
        opacity=".1"/>
  <path fill="#02BAEC" stroke="#163050" stroke-linecap="round" stroke-linejoin="round" stroke-width="1.326"
        d="M140.667 89.091c-3.248-.25-6.5-.458-9.756-.625-12.802-.481-12.908-20.504 0-20.004 3.244.162 6.483.37 9.719.625h.037c5.047.381 9.131-3.439 9.131-8.696v20.004c0 5.258-4.077 9.084-9.131 8.696z"/>
  <path fill="#FFD167" stroke="#163050" stroke-linecap="round" stroke-linejoin="round" stroke-width="1.326"
        d="M136.208 78.77c0-6.651-9.637-7.17-9.644-.488.007 6.596 9.65 7.09 9.644.488z"/>
  <path stroke="#163050" stroke-linecap="round" stroke-linejoin="round" stroke-width="1.326" d="M146.464 74.531v7.658"/>
  <path fill="#fff" stroke="#163050" stroke-linecap="round" stroke-linejoin="round" stroke-width="1.326"
        d="M48.462 64.742c-10.438 5.564-11.726 54.231 6.88 44.697-3.753-.625-5.316-2.969-5.63-9.533a8.262 8.262 0 0 0-3.595 1.563c-2.97-9.533-1.564-26.725 3.44-31.413 2.67-2.5 1.25-6.564-1.095-5.314z"/>
  <path stroke="#163050" stroke-linecap="round" stroke-linejoin="round" stroke-width="1.326"
        d="M101.86 88.51a5.834 5.834 0 0 0-5.838-5.836 5.84 5.84 0 0 0-5.838 5.836M79.558 73.625a3.75 3.75 0 0 0 3.752 3.751 3.753 3.753 0 0 0 3.752-3.75m-8.442-3.97 7.918-3.651m18.661 7.62a3.753 3.753 0 0 0 7.505 0m-6.985-7.514 7.611 3.438"/>
  <path fill="#08C" stroke="#163050" stroke-linecap="round" stroke-linejoin="round" stroke-width="1.326"
        d="M111.972 84.659c0-2.082-2.814-4.689-2.814-4.689s-2.814 2.501-2.814 4.689a2.811 2.811 0 0 0 2.814 2.813 2.816 2.816 0 0 0 2.814-2.813z"/>
</svg>
