<svg xmlns="http://www.w3.org/2000/svg" width="50" height="47"><defs><linearGradient id="a" x1="15.94%" x2="134.044%" y1="-11.673%" y2="75.025%"><stop offset="0%" stop-opacity=".1"/><stop offset="100%" stop-opacity="0"/></linearGradient><linearGradient id="b" x1="15.719%" x2="127.67%" y1="-12%" y2="73.771%"><stop offset="0%" stop-opacity=".1"/><stop offset="100%" stop-opacity="0"/></linearGradient><linearGradient id="c" x1="15.654%" x2="134.333%" y1="-11.363%" y2="75.024%"><stop offset="0%" stop-opacity=".1"/><stop offset="100%" stop-opacity="0"/></linearGradient></defs><g fill="none"><path fill="#005268" d="M29.167 22.554V4.3c0-2.353-1.869-4.267-4.167-4.267S20.833 1.947 20.833 4.3v18.254a8.542 8.542 0 0 0-4.166 7.346 8.542 8.542 0 0 0 4.166 7.346V42.7c0 2.353 1.869 4.267 4.167 4.267s4.167-1.914 4.167-4.267v-5.454a8.542 8.542 0 0 0 4.166-7.346 8.542 8.542 0 0 0-4.166-7.346z"/><path fill="#D6D6D6" d="M22.917 4.3c0-1.176.935-2.133 2.083-2.133 1.148 0 2.083.957 2.083 2.133v17.37c-.67-.179-1.36-.303-2.083-.303-.724 0-1.413.124-2.083.303V4.3zm4.166 38.4c0 1.176-.935 2.133-2.083 2.133-1.148 0-2.083-.957-2.083-2.133v-4.57c.67.179 1.36.303 2.083.303.724 0 1.413-.124 2.083-.303v4.57z"/><path fill="#005268" d="M16.667 12.833A8.542 8.542 0 0 0 12.5 5.487V4.3c0-2.353-1.869-4.267-4.167-4.267S4.167 1.947 4.167 4.3v1.187A8.542 8.542 0 0 0 0 12.833a8.542 8.542 0 0 0 4.167 7.347V42.7c0 2.353 1.868 4.267 4.166 4.267S12.5 45.053 12.5 42.7V20.18a8.542 8.542 0 0 0 4.167-7.347z"/><path fill="#D6D6D6" d="M6.25 4.3c0-1.176.935-2.133 2.083-2.133 1.149 0 2.084.957 2.084 2.133v.303c-.67-.178-1.36-.303-2.084-.303-.723 0-1.413.125-2.083.303V4.3zm4.167 38.4c0 1.176-.935 2.133-2.084 2.133-1.148 0-2.083-.957-2.083-2.133V21.064c.67.178 1.36.303 2.083.303.724 0 1.414-.125 2.084-.303V42.7z"/><path fill="#005268" d="M50 17.1a8.542 8.542 0 0 0-4.167-7.346V4.3c0-2.353-1.868-4.267-4.166-4.267S37.5 1.947 37.5 4.3v5.454a8.542 8.542 0 0 0-4.167 7.346 8.542 8.542 0 0 0 4.167 7.346V42.7c0 2.353 1.869 4.267 4.167 4.267s4.166-1.914 4.166-4.267V24.446A8.542 8.542 0 0 0 50 17.1z"/><path fill="#D6D6D6" d="M39.583 4.3c0-1.176.935-2.133 2.084-2.133 1.148 0 2.083.957 2.083 2.133v4.57c-.67-.179-1.36-.303-2.083-.303-.724 0-1.414.124-2.084.303V4.3z"/><ellipse cx="41.667" cy="17.1" fill="#1EB8E7" rx="6.25" ry="6.4"/><path fill="#D6D6D6" d="M43.75 42.7c0 1.176-.935 2.133-2.083 2.133-1.149 0-2.084-.957-2.084-2.133V25.33c.67.179 1.36.303 2.084.303.723 0 1.413-.124 2.083-.303V42.7z"/><path fill="url(#a)" d="M6.25 21.064v1.543l4.167 4.267v-5.81c-.67.178-1.36.303-2.084.303-.723 0-1.413-.125-2.083-.303z"/><path fill="url(#b)" d="M22.917 38.13v1.585l3.89 3.984c.161-.302.276-.632.276-1V38.13c-.67.178-1.36.303-2.083.303-.724 0-1.413-.124-2.083-.303z"/><path fill="#1097C0" d="M44.903 11.652c.579.97.93 2.097.93 3.315 0 3.529-2.803 6.4-6.25 6.4-1.188 0-2.29-.36-3.236-.953 1.098 1.842 3.062 3.086 5.32 3.086 3.446 0 6.25-2.87 6.25-6.4a6.414 6.414 0 0 0-3.014-5.448z"/><path fill="url(#c)" d="M39.583 25.33v1.593l4.167 4.266V25.33c-.67.179-1.36.303-2.083.303-.724 0-1.414-.124-2.084-.303z"/><ellipse cx="25" cy="29.9" fill="#1EB8E7" rx="6.25" ry="6.4"/><path fill="#1097C0" d="M28.237 24.452c.578.97.93 2.097.93 3.315 0 3.529-2.804 6.4-6.25 6.4-1.19 0-2.29-.36-3.237-.953 1.1 1.842 3.062 3.086 5.32 3.086 3.446 0 6.25-2.87 6.25-6.4a6.414 6.414 0 0 0-3.013-5.448z"/><ellipse cx="8.333" cy="12.833" fill="#1EB8E7" rx="6.25" ry="6.4"/><path fill="#1097C0" d="M11.57 7.386c.579.97.93 2.097.93 3.314 0 3.53-2.804 6.4-6.25 6.4-1.189 0-2.29-.36-3.237-.952 1.099 1.842 3.063 3.085 5.32 3.085 3.447 0 6.25-2.87 6.25-6.4a6.414 6.414 0 0 0-3.013-5.447z"/></g></svg>
