<?xml version="1.0" encoding="iso-8859-1"?>
<!-- Generator: Adobe Illustrator 19.0.0, SVG Export Plug-In . SVG Version: 6.00 Build 0)  -->
<svg version="1.1" id="Capa_1" xmlns="http://www.w3.org/2000/svg" x="0px"
     y="0px"
     viewBox="0 0 469.333 469.333" style="enable-background:new 0 0 469.333 469.333;" xml:space="preserve">
<path style="fill:#303C42;" d="M298.667,128c-7.4,0-14.641,0.634-21.796,1.552C272.141,57.346,212.048,0,138.667,0
	C62.208,0,0,62.208,0,138.667c0,73.382,57.346,133.474,129.552,138.204c-0.918,7.155-1.552,14.396-1.552,21.796
	c0,94.104,76.563,170.667,170.667,170.667s170.667-76.563,170.667-170.667S392.771,128,298.667,128z"/>
  <path style="fill:#FFCA28;" d="M21.333,138.667c0-64.698,52.646-117.333,117.333-117.333c62.715,0,113.962,49.516,116.98,112.375
	c-33.97,8.871-63.828,27.868-86.113,53.698c-1.725-3.565-5.303-6.073-9.534-6.073h-21.333c-17.646,0-32-14.354-32-32h32
	c5.896,0,10.667-4.771,10.667-10.667S144.563,128,138.667,128h-32c0-17.646,14.354-32,32-32H160c5.896,0,10.667-4.771,10.667-10.667
	S165.896,74.667,160,74.667h-21.333c-29.417,0-53.333,23.927-53.333,53.333c-5.896,0-10.667,4.771-10.667,10.667
	s4.771,10.667,10.667,10.667c0,29.406,23.917,53.333,53.333,53.333h19.004c-10.896,15.951-18.99,33.892-23.988,53.081
	C71.314,253.107,21.333,201.682,21.333,138.667z"/>
  <path style="opacity:0.2;fill:#FFFFFF;enable-background:new    ;" d="M43.02,160.253c0-64.698,52.646-117.333,117.333-117.333
	c26.853,0,51.289,9.466,71.052,24.783c-21.414-28.132-54.879-46.368-92.738-46.368c-64.688,0-117.333,52.635-117.333,117.333
	c0,38.276,18.6,72.089,47.055,93.477C52.747,212.24,43.02,187.491,43.02,160.253z"/>
  <circle style="fill:#FFCA28;" cx="298.667" cy="298.667" r="149.333"/>
  <path style="opacity:0.2;fill:#FFFFFF;enable-background:new    ;" d="M170.667,320c0-82.344,67-149.333,149.333-149.333
	c35.747,0,68.582,12.655,94.319,33.685c-27.409-33.546-69.061-55.018-115.652-55.018c-82.333,0-149.333,66.99-149.333,149.333
	c0,46.592,21.473,88.242,55.014,115.648C183.322,388.579,170.667,355.747,170.667,320z"/>
  <g>
	<path style="fill:#303C42;" d="M293.333,256h37.333c5.896,0,10.667-4.771,10.667-10.667c0-5.896-4.771-10.667-10.667-10.667
		h-21.333V224c0-5.896-4.771-10.667-10.667-10.667c-5.896,0-10.667,4.771-10.667,10.667v11.206c-18.046,2.615-32,18.036-32,36.794
		c0,20.583,16.75,37.333,37.333,37.333H304c8.813,0,16,7.177,16,16s-7.188,16-16,16h-37.333c-5.896,0-10.667,4.771-10.667,10.667
		c0,5.896,4.771,10.667,10.667,10.667H288v10.667c0,5.896,4.771,10.667,10.667,10.667c5.896,0,10.667-4.771,10.667-10.667v-11.206
		c18.046-2.615,32-18.036,32-36.794C341.333,304.75,324.583,288,304,288h-10.667c-8.813,0-16-7.177-16-16
		C277.333,263.177,284.521,256,293.333,256z"/>
    <path style="fill:#303C42;" d="M330.625,21.333c46.772,0.151,78.978,35.921,91.371,76.405l-22.559-11.28
		c-5.271-2.583-11.667-0.5-14.313,4.771c-2.625,5.271-0.5,11.677,4.771,14.313l42.667,21.333c1.542,0.76,3.167,1.125,4.771,1.125
		c3.896,0,7.667-2.156,9.542-5.896l21.333-42.667c2.625-5.271,0.5-11.677-4.771-14.313c-5.271-2.604-11.667-0.49-14.313,4.771
		l-8.267,16.533C424.855,40.109,386.138,0.172,330.708,0c-0.021,0-0.021,0-0.042,0C324.792,0,320.021,4.75,320,10.635
		C319.979,16.521,324.75,21.313,330.625,21.333z"/>
    <path style="fill:#303C42;" d="M138.833,447.927c-46.772-0.151-78.979-35.922-91.371-76.405l22.559,11.28
		c5.313,2.604,11.667,0.51,14.313-4.771c2.625-5.271,0.5-11.677-4.771-14.313l-42.667-21.333c-5.271-2.583-11.667-0.5-14.313,4.771
		L1.25,389.823c-2.625,5.271-0.5,11.677,4.771,14.313c1.542,0.76,3.167,1.125,4.771,1.125c3.896,0,7.667-2.156,9.542-5.896
		l8.267-16.533c16.003,46.319,54.72,86.257,110.15,86.428c0.021,0,0.021,0,0.042,0c5.875,0,10.646-4.75,10.667-10.635
		C149.479,452.74,144.708,447.948,138.833,447.927z"/>
</g>
  <linearGradient id="SVGID_1_" gradientUnits="userSpaceOnUse" x1="-67.3461" y1="618.4266" x2="-45.1716" y2="608.089"
                  gradientTransform="matrix(21.3333 0 0 -21.3333 1430.1112 13315.2227)">
	<stop offset="0" style="stop-color:#FFFFFF;stop-opacity:0.2"/>
    <stop offset="1" style="stop-color:#FFFFFF;stop-opacity:0"/>
</linearGradient>
  <path style="fill:url(#SVGID_1_);" d="M138.833,447.927c-46.772-0.151-78.979-35.922-91.371-76.405l22.559,11.28
	c5.313,2.604,11.667,0.51,14.313-4.771c2.625-5.271,0.5-11.677-4.771-14.313l-42.667-21.333c-5.271-2.583-11.667-0.5-14.313,4.771
	L1.25,389.823c-2.625,5.271-0.5,11.677,4.771,14.313c1.542,0.76,3.167,1.125,4.771,1.125c3.896,0,7.667-2.156,9.542-5.896
	l8.267-16.533c16.003,46.319,54.72,86.257,110.15,86.428c0.021,0,0.021,0,0.042,0c5.875,0,10.646-4.75,10.667-10.635
	C149.479,452.74,144.708,447.948,138.833,447.927z M330.625,21.333c46.772,0.151,78.978,35.921,91.371,76.405l-22.559-11.28
	c-5.271-2.583-11.667-0.5-14.313,4.771c-2.625,5.271-0.5,11.677,4.771,14.313l42.667,21.333c1.542,0.76,3.167,1.125,4.771,1.125
	c3.896,0,7.667-2.156,9.542-5.896l21.333-42.667c2.625-5.271,0.5-11.677-4.771-14.313c-5.271-2.604-11.667-0.49-14.313,4.771
	l-8.267,16.533C424.855,40.109,386.138,0.172,330.708,0c-0.021,0-0.021,0-0.042,0C324.792,0,320.021,4.75,320,10.635
	C319.979,16.521,324.75,21.313,330.625,21.333z M298.667,128c-7.4,0-14.641,0.634-21.796,1.552C272.141,57.346,212.048,0,138.667,0
	C62.208,0,0,62.208,0,138.667c0,73.382,57.346,133.474,129.552,138.204c-0.918,7.155-1.552,14.396-1.552,21.796
	c0,94.104,76.563,170.667,170.667,170.667s170.667-76.563,170.667-170.667S392.771,128,298.667,128z"/>
  <g>
</g>
  <g>
</g>
  <g>
</g>
  <g>
</g>
  <g>
</g>
  <g>
</g>
  <g>
</g>
  <g>
</g>
  <g>
</g>
  <g>
</g>
  <g>
</g>
  <g>
</g>
  <g>
</g>
  <g>
</g>
  <g>
</g>
</svg>
