<svg id="Capa_1" xmlns="http://www.w3.org/2000/svg" viewBox="0 0 426.7 512">
  <style>.st1{fill:#80deea}.st2{fill:#7cb342}.st3{opacity:.1;enable-background:new}</style>
  <path
    d="M377.6 319.9c31.6-35.2 49.1-80.2 49.1-127.9 0-51.3-20-99.5-56.2-135.8C334.2 20 285.9 0 234.7 0 187 0 142.1 17.5 106.8 49.1l-23-23c-4.2-4.2-10.9-4.2-15.1 0C23 71.8 0 131.9 0 192s23 120.2 68.7 165.9c37.6 37.6 84.9 59.5 133.9 66.2V448h-96C83.1 448 64 467.1 64 490.7v10.7c0 5.9 4.8 10.7 10.7 10.7H352c5.9 0 10.7-4.8 10.7-10.7v-10.7c0-23.5-19.1-42.7-42.7-42.7h-96v-22c3.6.2 7.1.5 10.7.5 60.1 0 120.2-22.9 165.9-68.6 2-2 3.1-4.7 3.1-7.5s-1.1-5.5-3.1-7.5l-23-23zm-293.8 23C3.1 262.2.7 132.6 76.4 48.9l15.3 15.3c-31.6 35.2-49 80.1-49 127.8 0 51.3 20 99.5 56.2 135.8C135.2 364 183.4 384 234.7 384c47.7 0 92.6-17.5 127.9-49.1l15.3 15.3c-83.8 75.7-213.5 73.3-294.1-7.3z"
    fill="#303c42"/>
  <path class="st1"
        d="M405.3 192c0 45.6-17.8 88.4-50 120.7-23.1 23.1-51.7 38.6-82.7 45.6-8.6-10.1-28.4-33.3-38.7-43.6-4.2-4.2-5.1-8.8-6.2-15.9-1.1-7-2.4-15.8-9.6-22.9-12.3-12.3-25.4-1.7-31 2.8-3.8 3-7.6 6.2-10.8 6.2-2.1.1-4.5 0-7.2 0-15.6-.2-43.1-.7-66 15.9C77.8 270.2 64 232.2 64 192c0-45.6 17.8-88.4 50-120.7 8.8-8.8 18.4-16.4 28.7-23-5.7 10.7-10.3 21.6-10.1 28.9.1 2.8 1.3 5.6 3.3 7.5 2.1 1.9 4.8 3.2 7.7 2.9h1.4c-.1 1.3-.5 3.4-1.5 6.4-4.1 13.3-4.6 33 3.8 44.7 4.2 5.8 10.3 9.1 17.1 9.3 1.4 0 2.9-.2 4.2-.8-2.5 6.2-4.1 13.1-3.9 20.5.4 17.8 11.9 27.5 19.5 33.9 1.6 1.3 3.1 2.6 4.3 3.8 5.8 5.8 14.1 8 22.6 5.8 6.1-1.5 12.3-5.2 17.3-10.2 12.1-12.1 25.4-21.3 30.7-22.6 5.6 5.2 10.9 7.4 15.3 9.2 3.6 1.5 6.1 2.5 8.6 5.1 1.6 1.6 1.6 1.7 1.9 3.7.7 4.8 2 10 8.6 16.5 11.6 11.6 34.4 13.6 36.9 13.8h.8c3.8 0 7.3-2 9.2-5.3 2.3-3.9 21.4-38.6 2.2-57.7-4.4-4.4-4.3-6.4-4.1-10.7.2-4.6.6-12.4-6.6-19.5-3-3-6.8-19-7.8-33.4-.2-2.9-1.6-5.5-3.8-7.4-2.2-1.9-5.1-2.7-7.9-2.4-4.2.4-13.9.8-23.6-.6 1.9-.9 3.7-2.2 5.1-4 2.3-2.8 8.5-10.9-.4-53.8 23 8.4 44.1 21.6 61.9 39.4 32.2 32.3 49.9 75.1 49.9 120.7z"/>
  <path class="st2"
        d="M247.7 362c-4.3.3-8.7.6-13.1.6-43.7 0-84.8-16.5-116.6-46.3 16.6-10.8 36.7-10.5 50.6-10.2 3.1.1 5.8.1 8.2 0 10.4-.3 18.1-6.5 23.6-11 1.1-.9 2.5-2 3.6-2.8 1.2 2.1 1.8 5.1 2.4 9.6 1.2 7.8 2.8 18.4 12.2 27.8 7.3 7.2 19.7 21.3 29.1 32.3zM304 112c1.6 11.9 5.3 29 13.3 37 .1.4 0 2 0 3.1-.3 5.9-.7 15.7 10.4 26.8 4.5 4.5 1.3 16.6-2.5 25.7-6.3-1.3-13.4-3.5-16.5-6.6-2.2-2.2-2.3-2.7-2.6-4.7-.7-4.6-1.9-9.5-7.9-15.6-5.6-5.6-11.1-7.9-15.6-9.7-3.8-1.6-6.6-2.7-9.8-5.9-3.5-3.5-7.7-5-12.3-5-15.4 0-35.1 16.9-47.2 28.9-2.3 2.3-5.1 4-7.4 4.6-1.7.5-2.1.1-2.4-.2-1.6-1.6-3.6-3.3-5.6-5-7.3-6.2-11.7-10.4-11.9-18.1-.3-13.9 11-26.8 15.9-31.7 4.6-4.6 6.5-5.2 9.6-6.3 5.7-1.9 11.2-4.3 19.9-13l5.6-5.5c5.7-5.5 11.2-10.8 15.2-16.5 1.7 3.4 5.1 6.9 11.6 10.1 13 6.5 29.8 8 40.2 7.6z"/>
  <path class="st1"
        d="M222.2 95.5l-5.9 5.8c-5.9 5.9-8.5 6.8-11.7 7.9-5.3 1.8-10.3 3.9-17.8 11.4-.8.8-1.6 1.6-2.4 2.5.2-.6.4-1.3.6-1.9 2.6-7.7 4.8-14.3 11-20.6 16.5-16.5 29.9-23.4 36.6-23.4 1.7 0 3 .5 3.8 1.3.3 3-9.1 12.1-14.2 17z"/>
  <path class="st2"
        d="M270 25.1c4.2 18.3 7.1 36.5 6.9 44.8-5.5.6-13.5 2-19.2 5.9-.6-5.1-3.1-9.8-7.3-14.1-20.6-20.6-55.4 9.8-69.4 23.7-9.9 9.9-13.4 20.4-16.2 28.9-.8 2.3-1.5 4.4-2.3 6.4-1-5-1.1-12.6 1.3-20.5 2.3-7.6 4.7-18.6-1.4-26.6-1.8-2.3-3.9-3.9-6.1-5 4-9.2 12.4-23.8 21.9-37.6 17.9-6.3 36.9-9.7 56.4-9.7 12.1 0 23.9 1.3 35.4 3.8z"/>
  <path class="st3"
        d="M74.6 251.2c6.6 17.9 16.2 34.6 28.6 49.6 6.8-4.9 14-8.2 21.1-10.6-18.9-9.8-35.8-23.1-49.7-39zM362.5 79.2c6.9 18.6 10.9 38.5 10.9 59.5 0 85.1-62.4 155.5-143.9 168.4.9 2.9 2.2 5.3 4.5 7.6 10.4 10.4 30.2 33.5 38.7 43.6 31.1-7 59.6-22.5 82.7-45.6 32.2-32.2 50-75.1 50-120.7-.1-42-15.3-81.6-42.9-112.8zM170.2 306.2h-1.5c-14-.3-34-.5-50.6 10.2 31.7 29.8 72.8 46.3 116.6 46.3 4.4 0 8.7-.3 13.1-.6-9.4-11-21.8-25.2-28.9-32.3-6.8-6.8-9.4-14.1-10.9-20.7-1.8.1-3.5.3-5.3.3-11.1-.1-22-1.2-32.5-3.2z"/>
  <path d="M341.3 490.7h-256c0-11.8 9.6-21.3 21.3-21.3H320c11.8-.1 21.3 9.5 21.3 21.3z" fill="#546e7a"/>
  <path class="st3" d="M320 469.3h-53.3c11.8 0 21.3 9.6 21.3 21.3h53.3c0-11.7-9.5-21.3-21.3-21.3z"/>
  <linearGradient id="SVGID_1_" gradientUnits="userSpaceOnUse" x1="-134.6947" y1="20.918" x2="-114.1981" y2="30.4755"
                  gradientTransform="translate(2860.2258 -277.9777) scale(21.3333)">
    <stop offset="0" stop-color="#fff" stop-opacity=".2"/>
    <stop offset="1" stop-color="#fff" stop-opacity="0"/>
  </linearGradient>
  <path
    d="M377.6 319.9c31.6-35.2 49.1-80.2 49.1-127.9 0-51.3-20-99.5-56.2-135.8C334.2 20 285.9 0 234.7 0 187 0 142.1 17.5 106.8 49.1l-23-23c-4.2-4.2-10.9-4.2-15.1 0C23 71.8 0 131.9 0 192s23 120.2 68.7 165.9c37.6 37.6 84.9 59.5 133.9 66.2V448h-96C83.1 448 64 467.1 64 490.7v10.7c0 5.9 4.8 10.7 10.7 10.7H352c5.9 0 10.7-4.8 10.7-10.7v-10.7c0-23.5-19.1-42.7-42.7-42.7h-96v-22c3.6.2 7.1.5 10.7.5 60.1 0 120.2-22.9 165.9-68.6 2-2 3.1-4.7 3.1-7.5s-1.1-5.5-3.1-7.5l-23-23zm-293.8 23C3.1 262.2.7 132.6 76.4 48.9l15.3 15.3c-31.6 35.2-49 80.1-49 127.8 0 51.3 20 99.5 56.2 135.8C135.2 364 183.4 384 234.7 384c47.7 0 92.6-17.5 127.9-49.1l15.3 15.3c-83.8 75.7-213.5 73.3-294.1-7.3z"
    fill="url(#SVGID_1_)"/>
</svg>
