<svg id="Layer_1" xmlns="http://www.w3.org/2000/svg" viewBox="0 0 307 442.5"><style>.st1{fill:#1a1a1a}</style><path d="M282 32.5H25c-9.7 0-17.5 7.8-17.5 17.4v120.2c0 9.6 7.8 17.4 17.5 17.4h257c9.7 0 17.5-7.8 17.5-17.4V49.9c0-9.6-7.8-17.4-17.5-17.4z" fill="#cd2a01"/><path class="st1" d="M282 25.5c13.5 0 24.5 10.9 24.5 24.4v120.2c0 13.5-11 24.4-24.5 24.4H25C11.5 194.5.5 183.6.5 170.1V49.9c0-13.5 11-24.4 24.5-24.4h257zm0 14H25c-5.8 0-10.5 4.7-10.5 10.4v120.2c0 5.7 4.7 10.4 10.5 10.4h257c5.8 0 10.5-4.7 10.5-10.4V49.9c0-5.7-4.7-10.4-10.5-10.4z"/><path d="M282 7.5H25c-9.7 0-17.5 7.8-17.5 17.4v120.2c0 9.6 7.8 17.4 17.5 17.4h257c9.7 0 17.5-7.8 17.5-17.4V24.9c0-9.6-7.8-17.4-17.5-17.4z" fill="#ff3502"/><path class="st1" d="M282 0c13.8 0 25 11.1 25 24.9v120.2c0 13.8-11.2 24.9-25 24.9H25c-13.8 0-25-11.1-25-24.9V24.9C0 11.1 11.2 0 25 0h257zm0 15H25c-5.5 0-10 4.4-10 9.9v120.2c0 5.4 4.5 9.9 10 9.9h257c5.5 0 10-4.4 10-9.9V24.9c0-5.5-4.5-9.9-10-9.9z"/><path d="M79.7 82.5H55.5v30.6c0 2.9-3.6 4.4-7 4.4-3.6 0-7-1.5-7-4.4V43.8c0-3 3.4-4.3 7-4.3 3.4 0 7 1.3 7 4.3v27.9h24.2V43.8c0-3 3.4-4.3 7-4.3 3.4 0 7 1.3 7 4.3v69.4c0 2.9-3.6 4.4-7 4.4-3.6 0-7-1.5-7-4.4V82.5zm40.9-9.5H137c2.8 0 4.4 2.7 4.4 5.5 0 2.5-1.4 5.3-4.4 5.3h-16.4v21.4h30.6c2.8 0 4.4 2.9 4.4 6.2 0 2.9-1.4 6-4.4 6h-38.4c-3.1 0-6.2-1.5-6.2-4.4V43.9c0-2.9 3-4.4 6.2-4.4h38.4c3 0 4.4 3.1 4.4 6 0 3.3-1.6 6.2-4.4 6.2h-30.6V73zm49.1 44.5c-3.1 0-6.1-1.5-6.1-4.4V43.8c0-3 3.4-4.3 7-4.3 3.4 0 7 1.3 7 4.3v61.6h26.1c2.8 0 4.2 3 4.2 6.1 0 3-1.4 6.1-4.2 6.1l-34-.1zm45.4-73.7c0-2.2 2-4.3 5.3-4.3H242c13.7 0 24.5 6.5 24.5 24v.6c0 17.5-11.1 24.2-25.3 24.2h-12.1v24.8c0 2.9-3.6 4.4-7 4.4-3.6 0-7-1.5-7-4.4V43.8zm14 7.9v25.8h12.1c7 0 11.3-3.9 11.3-12.3v-1.3c0-8.3-4.3-12.3-11.3-12.3 0 .1-12.1.1-12.1.1z" fill="#fff"/><path class="st1" d="M76 234.9c7.5-7.5 17.7-11.8 28.5-11.8 6.4 0 12.5 1.5 17.9 4.2 7.8-7.8 18-12.1 28.8-12.1 2.2 0 4.3.2 6.3.5v-60.8c0-10.8 4.3-21 11.8-28.5 1.8-1.8 3.8-3.5 6-4.9 6.9-4.6 15.1-7.1 23.6-6.9 22 .6 39.3 18.9 39.3 40.9v107.4c23-8.1 50.3 8.4 50.3 35.9V376c0 5.1-.4 10.1-1.1 15.1l-1.1 7.2-6 4.2c-37 26-81.1 40.1-127.3 40.1-45.9 0-89.8-14-126.7-39.7l-6.1-4.2-1-7.3c-1.1-7.7-1.7-15.4-1.7-23.1V283c0-10.8 4.3-21 11.8-28.5 1.8-1.8 3.9-3.5 6-4.9 6.6-4.4 14.4-6.9 22.5-6.9 3.9 0 7.6.5 11.2 1.6 1.9-3.4 4.2-6.6 7-9.4z"/><path d="M271.5 298.7v77.2c0 4.3-.3 8.5-.9 12.6-33.3 23.3-73.8 37-117.6 37-43.5 0-83.8-13.5-117-36.7-1-6.8-1.5-13.8-1.5-20.7V283c0-6.4 2.6-12.3 6.8-16.5 1.1-1.1 2.2-2 3.5-2.9 3.7-2.5 8.2-4 13-4 12.9 0 23.3 10.4 23.3 23.3v-19.6c0-6.4 2.6-12.3 6.8-16.5 4.2-4.2 10.1-6.8 16.5-6.8 12.9 0 23.3 10.5 23.3 23.3v-7.9c0-6.4 2.6-12.3 6.8-16.5 4.2-4.2 10.1-6.8 16.5-6.8 12.9 0 23.3 10.4 23.3 23.3V154.8c0-6.4 2.6-12.3 6.8-16.5 1.1-1.1 2.2-2 3.5-2.9 3.9-2.6 8.6-4.1 13.6-4 12.7.3 22.7 11.1 22.7 23.9v164.2c0-12.5 4.6-24 12.2-32.8.8-1 1.7-1.9 2.6-2.8l.3-.3c13.3-12.8 35.5-3.3 35.5 15.1z" fill="#fecd9c"/><path d="M184.3 135.5v168.7c0 2.9-2.3 5.2-5.2 5.2s-5.2-2.3-5.2-5.2V154.9c0-6.5 2.6-12.3 6.8-16.5 1.1-1.1 2.3-2 3.6-2.9zm-45.8 100.9v77.4c0 2.9-2.3 5.2-5.2 5.2s-5.2-2.3-5.2-5.2v-58c0-6.5 2.6-12.3 6.8-16.5 1.2-1.1 2.3-2.1 3.6-2.9zm-47.6 8.7v75.3c0 2.9-2.3 5.2-5.2 5.2s-5.2-2.3-5.2-5.2v-55.9c0-6.5 2.6-12.3 6.8-16.5 1.2-1.1 2.3-2 3.6-2.9zm-46 18.8v131.2c-3-1.9-6-3.8-8.9-5.8-1-6.8-1.5-13.8-1.5-20.8v-85.2c0-6.5 2.6-12.3 6.9-16.5 1.1-1.1 2.3-2.1 3.5-2.9zM238.2 282l-1.4 85.3c0 3.7-2.3 6.7-5.2 6.7-2.9 0-5.2-3-5.2-6.7v-55.2c.1-19.1 5.3-24.7 11.8-30.1z" fill="#eab689"/><path class="st1" d="M231.1 253.5v104.2c0 4.2-2.3 7.7-5.2 7.7-2.9 0-5.2-3.4-5.2-7.7v-62.8l.7-40.4 9.7-1zm-101.9-15.3v75.1c0 3.4-2.3 6.1-5.2 6.1-2.9 0-5.2-2.7-5.2-6.1v-61.7c0-25.8 3.9-4.6 10.4-13.4zm-48.6 26.1V319c0 3.4-2.3 6.1-5.2 6.1-2.9 0-5.2-2.7-5.2-6.1v-49.9c0-25.9 3.9 4 10.4-4.8zm93.4-44.5v82.8c0 3.4-2.9 6.1-6.4 6.1-3.5 0-6.4-2.7-6.4-6.1v-69.9c0-12.6 4.8-4.1 12.8-12.9z"/></svg>