<svg xmlns="http://www.w3.org/2000/svg" width="38" height="50"><g fill="none"><path fill="#005268" d="M36.944 18.75h-3.166v-4.167C33.778 6.542 27.148 0 19 0 10.851 0 4.222 6.542 4.222 14.583v4.167H1.056C.472 18.75 0 19.216 0 19.792v26.041C0 48.131 1.894 50 4.222 50h29.556C36.106 50 38 48.131 38 45.833V19.792c0-.576-.472-1.042-1.056-1.042zm-9.5 0H10.556v-4.167c0-4.595 3.788-8.333 8.444-8.333 4.656 0 8.444 3.738 8.444 8.333v4.167z"/><path fill="#F2F2F2" d="M6.333 14.583c0-6.893 5.682-12.5 12.667-12.5 6.985 0 12.667 5.607 12.667 12.5v4.167h-2.111v-4.167C29.556 8.84 24.82 4.167 19 4.167c-5.82 0-10.556 4.673-10.556 10.416v4.167h-2.11v-4.167z"/><path fill="#1097C0" d="M35.889 45.833c0 1.149-.947 2.084-2.111 2.084H4.222c-1.163 0-2.11-.935-2.11-2.084v-25h33.777v25z"/><path fill="#FFF" d="M6.333 45.833v-25H2.111v25c0 1.149.947 2.084 2.111 2.084h3.695c-.873 0-1.584-.935-1.584-2.084z" opacity=".2"/><path fill="#000" d="M31.667 20.833v25c0 1.149-.71 2.084-1.584 2.084h3.695c1.163 0 2.11-.935 2.11-2.084v-25h-4.221z" opacity=".05"/><path fill="#005268" d="M16.505 34.6l-.665 5.91c-.033.294.062.589.262.81.2.22.487.347.787.347h4.222c.3 0 .587-.126.787-.347.2-.22.296-.516.263-.81l-.666-5.91a4.104 4.104 0 0 0 1.727-3.35c0-2.298-1.893-4.167-4.222-4.167-2.329 0-4.222 1.87-4.222 4.167 0 1.347.646 2.575 1.727 3.35z"/><path fill="#FFF" d="M19 29.167c1.164 0 2.111.935 2.111 2.083 0 .799-.46 1.514-1.2 1.868a1.04 1.04 0 0 0-.59 1.053l.61 5.412h-1.863l.61-5.412a1.04 1.04 0 0 0-.59-1.053 2.066 2.066 0 0 1-1.199-1.868c0-1.148.947-2.083 2.111-2.083z"/><path fill="#000" d="M18.18 33.203a2.01 2.01 0 0 1-.236-.911c0-1.149.948-2.084 2.111-2.084.31 0 .598.073.862.192A2.11 2.11 0 0 0 19 29.167c-1.164 0-2.111.934-2.111 2.083 0 .798.46 1.514 1.2 1.868.04.019.055.062.091.085zm1.407 3.317l-.246-2.177c-.07-.059-.111-.143-.197-.184a2.155 2.155 0 0 1-.545-.382c.038.13.095.254.08.394l-.61 5.412h1.172l.346-3.063z" opacity=".1"/></g></svg>
