<svg xmlns="http://www.w3.org/2000/svg" width="50" height="45"><g fill="none" fill-rule="evenodd" stroke="#005268" stroke-width="2"><path fill="#1097C0" fill-rule="nonzero" d="M1 22.505C1 34.33 11.75 44 25.005 44c4.395 0 8.673-1.07 12.419-3.104l.474-.258.476.256c1.882 1.012 4.027 1.524 6.398 1.524.77 0 1.516-.05 2.235-.156a.914.914 0 0 0 .76-.71.953.953 0 0 0-.409-1.019c-1.456-.981-2.576-2.336-3.344-4.039l-.259-.574.406-.481C47.29 31.721 49 27.151 49 22.495 49 10.67 38.25 1 24.995 1 11.745 1 1 10.677 1 22.505z"/><path fill="#FEEF62" d="M30.786 24.935l-.005.004a.51.51 0 0 0-.156.507l1.283 5.28c.341 1.404-.871 2.31-2.11 1.527l-4.555-2.874a.44.44 0 0 0-.486 0l-4.562 2.893c-1.225.777-2.46-.101-2.116-1.515l1.296-5.322a.513.513 0 0 0-.161-.512L15.11 21.41c-1.096-.937-.622-2.375.807-2.48l5.354-.393a.494.494 0 0 0 .405-.305l2.016-5.032c.542-1.352 2.059-1.358 2.605.001l2.023 5.034a.486.486 0 0 0 .416.314l5.347.393c1.442.106 1.908 1.538.807 2.48l-4.104 3.513z"/></g></svg>
