<svg xmlns="http://www.w3.org/2000/svg" viewBox="0 0 512.001 512.001"><path d="M512.001 10.667C512.001 4.771 507.23 0 501.334 0c-146.38 0-242.996 88.328-327.862 192.072C60.989 193.383 23.652 236.65.553 305.959c-1.094 3.25-.542 6.833 1.458 9.615 2.01 2.78 5.229 4.426 8.656 4.426h80.917l10.667 10.667-35.125 35.125c-4.167 4.167-4.167 10.917 0 15.083l6.845 6.845C35.3 399.35.001 440.387.001 501.333.001 507.229 4.772 512 10.668 512c60.947 0 101.983-35.299 113.613-73.97l6.845 6.845c2.083 2.083 4.813 3.125 7.542 3.125s5.458-1.042 7.542-3.125l35.125-35.125 10.615 10.615v80.969c0 3.427 1.646 6.646 4.427 8.656 1.844 1.323 4.031 2.01 6.24 2.01 1.135 0 2.271-.177 3.375-.552 69.299-23.096 112.564-60.426 113.885-172.875 103.767-84.876 192.124-181.501 192.124-327.906z" fill="#303c42"/><path d="M155.872 213.973c-15.238 19.284-30.21 38.87-45.069 58.402l-20.078 26.292H25.834c19.81-50.891 50.394-80.169 130.038-84.694z" fill="#d32f2f"/><path d="M21.803 490.198c4.324-50.66 37.815-82.007 70.245-84.401l14.156 14.156c-2.395 32.43-33.741 65.921-84.401 70.245z" fill="#ff6f00"/><path d="M48.099 463.902c2.851-33.401 24.932-54.069 46.314-55.648l9.334 9.334c-1.58 21.382-22.247 43.463-55.648 46.314z" fill="#ffca28"/><path fill="#e6e6e6" d="M166.2665177 394.6736893l-27.5903349 27.5903349-48.9200064-48.9200064 27.5903349-27.5903349z"/><path opacity=".1" d="M166.2705214 394.6645526l-8.8394571 8.8394571-48.9200064-48.9200064 8.8394571-8.8394571z"/><path d="M213.282 486.167v-64.85l26.344-20.118c19.514-14.845 39.081-29.803 58.346-45.026-4.534 79.61-33.81 110.188-84.69 129.994z" fill="#d32f2f"/><linearGradient id="a" gradientUnits="userSpaceOnUse" x1="-35.7094" y1="627.7314" x2="-33.741" y2="625.7631" gradientTransform="matrix(21.3333 0 0 -21.3333 996.3276 13791.6738)"><stop offset="0" stop-opacity=".1"/><stop offset="1" stop-opacity="0"/></linearGradient><path d="M213.282 486.167v-64.85l26.344-20.118c19.514-14.845 39.081-29.803 58.346-45.026-4.534 79.61-33.81 110.188-84.69 129.994z" fill="url(#a)"/><path d="M213.656 443.343L240 422.753c18.569-14.126 37.161-28.384 55.521-42.845 1.053-7.465 1.965-15.188 2.452-23.736-19.266 15.223-38.832 30.181-58.346 45.026l-26.344 20.118v21.928" opacity=".1"/><path d="M226.719 384.219l-23.104 17.635-93.469-93.469 17.635-23.104C224.417 158.261 324.271 27 490.49 21.511c-5.489 166.218-136.75 266.073-263.771 362.708z" fill="#f2f2f2"/><path d="M184.137 382.377l19.478 19.478 23.104-17.635c125.768-95.682 255.503-194.624 263.382-357.913-37.991 154.141-173.78 256.598-305.964 356.07z" opacity=".1"/><circle cx="352" cy="160" r="53.333" fill="#303c42"/><circle cx="352" cy="160" r="32" fill="#bbdefb"/><path d="M337.119 175.111c0-17.646 14.354-32 32-32 3.913 0 7.617.806 11.086 2.096C374.842 135.03 364.282 128 352.001 128c-17.646 0-32 14.354-32 32 0 13.733 8.741 25.372 20.914 29.904-2.343-4.445-3.796-9.428-3.796-14.793z" opacity=".1"/><path d="M146.649 225.925c3.098-3.969 6.104-8.005 9.223-11.952-79.643 4.525-110.228 33.803-130.038 84.694h4.876c19.119-41.975 49.231-66.934 115.939-72.742z" opacity=".2" fill="#fff"/><linearGradient id="b" gradientUnits="userSpaceOnUse" x1="-43.7256" y1="638.6898" x2="-27.9169" y2="631.322" gradientTransform="matrix(21.3333 0 0 -21.3333 996.3276 13791.6738)"><stop offset="0" stop-color="#fff" stop-opacity=".2"/><stop offset="1" stop-color="#fff" stop-opacity="0"/></linearGradient><path d="M512.001 10.667C512.001 4.771 507.23 0 501.334 0c-146.38 0-242.996 88.328-327.862 192.072C60.989 193.383 23.652 236.65.553 305.959c-1.094 3.25-.542 6.833 1.458 9.615 2.01 2.78 5.229 4.426 8.656 4.426h80.917l10.667 10.667-35.125 35.125c-4.167 4.167-4.167 10.917 0 15.083l6.845 6.845C35.3 399.35.001 440.387.001 501.333.001 507.229 4.772 512 10.668 512c60.947 0 101.983-35.299 113.613-73.97l6.845 6.845c2.083 2.083 4.813 3.125 7.542 3.125s5.458-1.042 7.542-3.125l35.125-35.125 10.615 10.615v80.969c0 3.427 1.646 6.646 4.427 8.656 1.844 1.323 4.031 2.01 6.24 2.01 1.135 0 2.271-.177 3.375-.552 69.299-23.096 112.564-60.426 113.885-172.875 103.767-84.876 192.124-181.501 192.124-327.906z" fill="url(#b)"/></svg>
