<svg xmlns="http://www.w3.org/2000/svg" width="50" height="50"><g fill="none"><path fill="#005268" d="M49.903 1.04A1.04 1.04 0 0 0 48.863 0C34.596 0 25.179 8.609 16.908 18.72 5.944 18.848 2.305 23.065.054 29.82a1.04 1.04 0 0 0 .986 1.37h7.886l1.04 1.039-3.424 3.423a1.04 1.04 0 0 0 0 1.47l.668.667C3.44 38.923 0 42.923 0 48.863c0 .575.465 1.04 1.04 1.04 5.94 0 9.94-3.44 11.073-7.21l.667.667a1.036 1.036 0 0 0 1.47 0l3.424-3.423 1.035 1.034v7.892a1.041 1.041 0 0 0 1.368.986c6.754-2.251 10.971-5.89 11.1-16.85 10.114-8.272 18.726-17.69 18.726-31.96z"/><path fill="#067997" d="M15.192 20.855a391.548 391.548 0 0 0-4.392 5.692L8.843 29.11H2.518c1.93-4.96 4.912-7.814 12.674-8.255z"/><path fill="#FEEF62" d="M2.125 47.778c.421-4.938 3.686-7.993 6.847-8.227l1.38 1.38c-.234 3.16-3.29 6.425-8.227 6.847z"/><path fill="#FBB266" d="M4.688 45.215c.278-3.256 2.43-5.27 4.514-5.424l.91.91c-.154 2.084-2.169 4.236-5.424 4.514z"/><path fill="#1EB8E7" d="M16.206 38.467l-2.69 2.69-4.767-4.769 2.689-2.689z"/><path fill="#1097C0" d="M16.205 38.466l-.861.861-4.768-4.768.861-.86z"/><path fill="#067997" d="M20.788 47.385v-6.321l2.567-1.96a390.956 390.956 0 0 0 5.687-4.39c-.442 7.76-3.295 10.74-8.254 12.67z"/><path fill="#000" d="M20.824 43.21l2.568-2.006a406.698 406.698 0 0 0 5.411-4.176c.103-.728.192-1.48.24-2.313a391.485 391.485 0 0 1-5.688 4.388l-2.567 1.96v2.138" opacity=".1"/><path fill="#1EB8E7" d="M22.097 37.448l-2.251 1.72-9.11-9.111 1.718-2.252c9.419-12.38 19.151-25.173 35.352-25.708-.535 16.2-13.328 25.933-25.709 35.351z"/><path fill="#1097C0" d="M17.947 37.269l1.899 1.898 2.251-1.719C34.355 28.123 47 18.48 47.768 2.564c-3.703 15.024-16.937 25.01-29.82 34.705z"/><circle cx="34.308" cy="15.595" r="5.198" fill="#005268"/><circle cx="34.308" cy="15.595" r="3.119" fill="#1097C0"/><path fill="#000" d="M32.858 17.067a3.122 3.122 0 0 1 3.119-3.119c.38 0 .742.079 1.08.205a3.11 3.11 0 0 0-2.749-1.677 3.122 3.122 0 0 0-3.119 3.119c0 1.338.852 2.472 2.039 2.914a3.078 3.078 0 0 1-.37-1.442z" opacity=".1"/><path fill="#FFF" d="M14.293 22.02c.302-.387.595-.78.9-1.165-7.763.441-10.744 3.295-12.675 8.255h.475c1.864-4.091 4.799-6.524 11.3-7.09z" opacity=".2"/></g></svg>
