<svg xmlns="http://www.w3.org/2000/svg" width="60" height="51">
  <defs>
    <linearGradient id="a" x1="17.388%" x2="82.47%" y1="26.818%" y2="126.979%">
      <stop offset="0%" stop-opacity=".1"/>
      <stop offset="100%" stop-opacity="0"/>
    </linearGradient>
    <linearGradient id="b" x1="21.811%" x2="121.205%" y1="-21.98%" y2="77.938%">
      <stop offset="0%" stop-opacity=".1"/>
      <stop offset="100%" stop-opacity="0"/>
    </linearGradient>
  </defs>
  <g fill="none">
    <g transform="translate(13.228 14.972)">
      <path fill="#005268"
            d="M44.535 12.323V4.328c0-2.155-1.736-3.907-3.871-3.907H3.889C1.754.42.02 2.173.02 4.328v27.353c0 2.155 1.735 3.907 3.87 3.907h36.775c2.135 0 3.87-1.752 3.87-3.907v-7.995a2.924 2.924 0 0 0 1.936-2.75v-5.862a2.924 2.924 0 0 0-1.935-2.75z"/>
      <path fill="#1097C0"
            d="M40.807 33.737H3.823a1.96 1.96 0 0 1-1.947-1.966V4.238a1.96 1.96 0 0 1 1.947-1.966h36.984a1.96 1.96 0 0 1 1.947 1.966v7.867h-5.84c-3.22 0-5.84 2.646-5.84 5.9 0 3.253 2.62 5.9 5.84 5.9h5.84v7.866a1.96 1.96 0 0 1-1.947 1.966z"/>
      <path fill="#1097C0"
            d="M44.612 20.576c0 .51-.416.926-.929.926H37.18a3.713 3.713 0 0 1-3.716-3.702 3.713 3.713 0 0 1 3.716-3.702h6.503c.513 0 .929.415.929.925v5.553z"/>
      <path fill="url(#a)" d="M38.214 21.503h4.824l-4.824-5.207-2.345 2.619z"/>
      <ellipse cx="37.18" cy="17.8" fill="#005268" rx="1.858" ry="1.851"/>
      <path fill="url(#b)"
            d="M42.69 31.887c.018-.108.064-.206.064-.318v-7.78h-5.817a5.75 5.75 0 0 1-3.442-1.157h-.031l9.226 9.255z"/>
      <path
        d="M44.535 12.323V4.328c0-2.155-1.736-3.907-3.871-3.907H3.889C1.754.42.02 2.173.02 4.328v27.353c0 2.155 1.735 3.907 3.87 3.907h36.775c2.135 0 3.87-1.752 3.87-3.907v-7.995a2.924 2.924 0 0 0 1.936-2.75v-5.862a2.924 2.924 0 0 0-1.935-2.75z"/>
    </g>
    <path fill="#005268"
          d="M21.839.245c-5.955 0-10.8 4.82-10.8 10.746 0 .706.078 1.43.23 2.157l-1.206.6a.669.669 0 0 0-.175 1.076l.873.869-.675.671h-1.07c-.374 0-.676.3-.676.672V18.1l-.954.95h-1.07c-.373 0-.675.3-.675.672v1.065l-.955.95h-1.07c-.373 0-.675.3-.675.671v1.065l-2.502 2.49a.67.67 0 0 0-.198.475v5.373c0 .371.302.672.675.672h5.4c.179 0 .35-.071.477-.197l10.321-10.271.873.868a.676.676 0 0 0 1.08-.174l.604-1.2c6.867 1.424 12.966-3.888 12.966-10.519C32.637 5.066 27.793.245 21.84.245zm2.12 9.21a1.733 1.733 0 0 1-1.735-1.726c0-.953.779-1.727 1.736-1.727s1.735.774 1.735 1.727c0 .952-.778 1.727-1.735 1.727z"/>
    <path fill="#D6D6D6"
          d="M21.909 1.396c-5.278 0-9.572 4.273-9.572 9.525 0 .775.106 1.577.315 2.385a.68.68 0 0 1-.356.778l-.855.426.696.693a.678.678 0 0 1 0 .962l-1.367 1.36a.685.685 0 0 1-.484.2h-.684v.68a.677.677 0 0 1-.2.481l-1.367 1.361a.685.685 0 0 1-.484.2h-.683v.68c0 .18-.072.353-.2.48L5.3 22.97a.685.685 0 0 1-.483.199h-.684v.68a.677.677 0 0 1-.2.481l-2.535 2.523v4.48h4.503L16.64 20.646a.686.686 0 0 1 .966 0l.697.693.428-.851a.688.688 0 0 1 .782-.355c6.316 1.618 11.967-3.185 11.967-9.212 0-5.252-4.293-9.525-9.571-9.525zm2.05 9.703a3.374 3.374 0 0 1-3.37-3.37 3.374 3.374 0 0 1 3.37-3.37 3.374 3.374 0 0 1 3.371 3.37 3.374 3.374 0 0 1-3.37 3.37z"/>
    <path fill="#000"
          d="M30.6 7.153c.129.617.197 1.256.197 1.91 0 5.978-5.652 10.742-11.968 9.136a.69.69 0 0 0-.782.352l-.428.845-.696-.688a.69.69 0 0 0-.967 0l-10.739 10.6H1.398v2.024h4.503l10.739-10.6a.69.69 0 0 1 .966 0l.697.688.428-.844a.69.69 0 0 1 .782-.352c6.316 1.605 11.967-3.159 11.967-9.137a9.27 9.27 0 0 0-.88-3.934z"
          opacity=".081"/>
    <path
      d="M21.839.245c-5.955 0-10.8 4.82-10.8 10.746 0 .706.078 1.43.23 2.157l-1.206.6a.669.669 0 0 0-.175 1.076l.873.869-.675.671h-1.07c-.374 0-.676.3-.676.672V18.1l-.954.95h-1.07c-.373 0-.675.3-.675.672v1.065l-.955.95h-1.07c-.373 0-.675.3-.675.671v1.065l-2.502 2.49a.67.67 0 0 0-.198.475v5.373c0 .371.302.672.675.672h5.4c.179 0 .35-.071.477-.197l10.321-10.271.873.868a.676.676 0 0 0 1.08-.174l.604-1.2c6.867 1.424 12.966-3.888 12.966-10.519C32.637 5.066 27.793.245 21.84.245zm2.12 9.21a1.733 1.733 0 0 1-1.735-1.726c0-.953.779-1.727 1.736-1.727s1.735.774 1.735 1.727c0 .952-.778 1.727-1.735 1.727z"/>
  </g>
</svg>
