<svg xmlns="http://www.w3.org/2000/svg" viewBox="21 -251 214 246"><path fill="#fff" d="M106-148q-6 1-9.5 5t-3.5 9 3.5 9 9 4 9-4 3.5-9-3.5-9-8.5-5zm45 0q-5 0-8.5 2t-5.5 6-1 8 3.5 7 6.5 4 8-.5 6.5-5 2.5-8.5-3.5-9-8.5-4zm59-103H46q-11 1-18 8.5T21-224v165q0 11 7.5 18T46-34h139l-7-23 57 52v-219q0-11-7-18.5t-18-8.5zM163-90l-8-10q14-4 22-15-7 4-15 7.5t-17 5.5q-16 2-32-1-9-1-17-4.5T81-115q8 11 22 14l-8 11q-13-1-22-6-7-3-12-8l-4-5q1-38 18-72 15-12 34-12l1 1q-17 4-32 16l7-4q14-6 28-7h2q13-2 25-1 20 3 37 12-14-11-30-16l1-2q20 1 35 13 17 34 17 72-2 4-8 9-12 9-29 10z"/></svg>
