<svg xmlns="http://www.w3.org/2000/svg" viewBox="0 -253 256 250.333"><path fill="#fff" d="M128-253q-35 0-64.5 17.5T17-189 0-125q0 28 11 52.5T42-30 87-3q5 1 7-1t2-6v-21q-12 2-20.5.5T62-36t-7-9l-2-4q-3-6-6-10t-6-7l-3-1q-7-5-4.5-6.5T39-75q6 0 10.5 3t7.5 7l2 3q7 13 20 14 8 1 18-3 1-12 8-17-26-3-40-15-19-15-19-49 0-21 14-34-6-16 1-34h3q5 0 12 3 9 3 20 10 16-4 32-4t32 4q15-10 27-13 6-1 8 0 5 11 4 22-1 7-3 12 14 15 14 34 0 34-19 49-14 11-40 14 8 7 8 24v35q0 3 2.5 5t7.5 1q25-8 45-26t31-42.5 11-52.5q0-35-17-64t-46.5-46.5T128-253z"/></svg>
