<svg xmlns="http://www.w3.org/2000/svg" viewBox="-1 -235 257 215"><path fill="#fff" d="M256-130q0-13-9-22t-22-9q-10 0-19 7-28-18-68-20l13-43 37 9q1 10 8 17t17.5 7 18-7.5 7.5-18-7.5-18T213-235q-7 0-13 3.5T190-221l-42-10q-3-1-5.5 0t-3.5 4l-16 53q-42 0-74 20-8-7-19.5-7t-21 9.5T-1-130q0 8 4 14.5T13-105q-1 3-1 8 0 16 9 30.5t25.5 25 37 16T127-20t43.5-5.5 37-16 25.5-25 9-30.5q0-4-1-7 7-4 11-11t4-15zm-43-92q5 0 8.5 3.5t3.5 8.5-3.5 8.5-8 3.5-8-3.5-3.5-8.5 3.5-8.5 7.5-3.5zM73-111q0-8 5-13t12-5 12 5 5 12.5-5 12.5-12 5-12-5-5-12zm97 51q-13 13-42 13T86-60q-2-2-2-5t2-5 5-2 5 2q9 9 32 9t32-9q2-2 5-2t5 2 2 5-2 5zm-4-34q-7 0-12.5-5t-5.5-12 5.5-12.5T166-129t12 5.5 5 12.5-5 12-12 5z"/></svg>
