<svg fill="none" xmlns="http://www.w3.org/2000/svg" viewBox="0 0 241 53">
  <path fill-rule="evenodd" clip-rule="evenodd" d="M18.7343 45.918c1.8756 0 3.6088-.3411 5.2518-.983.014.0321 3.3581 5.2277 3.4062 5.2638-3.0271 1.6269-6.1906 2.3431-9.649 2.3431C7.4624 52.5419 0 45.7675 0 34.953c0-10.8927 7.8436-17.6671 17.7433-17.6671 3.5246 0 6.3029.7643 9.1014 2.2608-.309.5136-3.1896 5.4043-3.1997 5.4243a13.8681 13.8681 0 0 0-5.2176-.9829c-6.0923 0-10.8125 3.8836-10.8125 10.9649 0 6.7002 4.5677 10.965 11.1194 10.965Zm25.9299-28.6321c10.1284 0 17.4384 7.1595 17.4384 17.6671 0 10.4314-7.31 17.5889-17.4384 17.5889-10.0502 0-17.3602-7.1555-17.3602-17.5889 0-10.5076 7.31-17.6671 17.3602-17.6671Zm0 6.4735c-5.6329 0-9.7473 4.341-9.7473 11.1936 0 6.7784 4.1124 11.1174 9.7493 11.1174 5.7874 0 9.8235-4.339 9.8235-11.1174 0-6.8526-4.0361-11.1936-9.8255-11.1936ZM66.901 51.7816V18.0462h7.5367v33.7354H66.901ZM65.91 7.6891c0-2.5878 2.2107-4.642 4.7222-4.642 2.5136 0 4.7202 2.0542 4.7202 4.644 0 2.666-2.2066 4.7984-4.7202 4.7984-2.5115 0-4.7222-2.1324-4.7222-4.7984v-.002Zm15.1054 12.4915c4.7202-1.8275 10.5116-2.8947 15.4585-2.8947 8.6061 0 14.0881 3.2739 14.0881 12.7925v21.7032H103.1V30.7644c0-4.8726-3.045-6.6259-7.236-6.6259-2.666 0-5.328.3812-7.3099.991v26.6521h-7.5387v-31.601ZM116.875 0h7.537v18.963c1.599-.8385 4.72-1.6771 7.689-1.6771 9.749 0 17.057 6.2428 17.057 17.0573 0 10.8887-7.232 18.1987-19.719 18.1987a37.4654 37.4654 0 0 1-12.564-2.2067V0Zm7.537 45.3864c1.446.4553 3.35.682 5.254.682 6.928 0 11.879-3.8054 11.879-11.5748 0-6.5476-4.644-10.4313-10.355-10.4313-2.969 0-5.256.7623-6.78 1.6008l.002 19.7233Zm46.524-16.2228c0-3.655-2.743-5.328-6.474-5.328-3.884 0-6.929 1.1414-9.745 2.7403v-6.5497c2.969-1.6731 6.774-2.7403 10.965-2.7403 7.384 0 12.638 3.0452 12.638 11.4966v22.313c-3.198.8365-7.764 1.3722-11.571 1.3722-8.758 0-15.156-2.6661-15.156-10.2809 0-6.8526 5.862-10.2027 15.609-10.2027h3.732l.002-2.8205Zm0 7.8436h-3.198c-5.256 0-8.682 1.5246-8.682 4.9509 0 3.5025 3.2 4.8726 7.767 4.8726 1.144 0 2.742-.1524 4.113-.3811v-9.4424Zm12.866 5.6369c3.124 2.3591 6.853 3.8055 10.279 3.8055 3.352 0 5.561-1.1415 5.561-3.8055 0-2.7442-1.98-3.7332-6.319-4.8746-7.007-1.5988-9.978-4.4153-9.978-10.2789 0-6.8546 5.179-10.2047 12.032-10.2047 3.807 0 6.853.8386 9.669 2.5878v6.9308c-2.969-2.1304-5.862-3.4263-9.44-3.4263-3.274 0-5.025 1.5988-5.025 3.8075 0 2.2066 1.444 3.3501 5.33 4.4132 7.693 1.6771 11.041 4.5738 11.041 10.6641 0 7.0813-5.406 10.2789-12.716 10.2789-3.96 0-7.92-1.0632-10.432-2.7403l-.002-7.1575Zm33.469-6.016v.1524c.457 6.0141 5.633 9.2879 10.887 9.2879 4.645 0 7.998-1.0652 11.346-3.2738v6.6279c-3.046 2.1304-7.539 3.1194-11.876 3.1194-10.51 0-17.667-6.7002-17.667-17.3602 0-10.7363 7.003-17.8938 16.295-17.8938 9.821 0 14.467 6.319 14.467 15.5307v3.8115l-23.452-.002Zm16.369-4.8747c-.15-5.2558-2.738-8.1465-7.613-8.1465-4.341 0-7.539 3.0472-8.528 8.1485l16.141-.002Z" fill="#1652F0"/>
</svg>
