<svg xmlns="http://www.w3.org/2000/svg" fill="none" viewBox="0 0 203.3 50">
  <path
    d="M35.1132 0H15.9585v25.8411h25.862V6.6863a6.685 6.685 0 0 0-1.9657-4.7354A6.687 6.687 0 0 0 35.1132 0ZM9.9874 0H6.6863A6.6863 6.6863 0 0 0 0 6.6863v3.301h9.9874V0ZM0 15.959h9.9874v9.9874H0V15.959ZM31.917 41.8212h3.3011a6.6851 6.6851 0 0 0 4.7353-1.9658 6.6854 6.6854 0 0 0 1.951-4.7415V31.918H31.917v9.9032ZM15.9585 31.918h9.9874v9.9873h-9.9874V31.918ZM0 31.918v3.3011a6.6862 6.6862 0 0 0 6.6863 6.6862h3.301V31.918H0ZM67.3464 2.67h-3.9109v36.5642h20.7107v-3.4903H67.3464V2.6699ZM96.7201 12.3633c-7.6114 0-12.973 5.656-12.973 13.7931v.9251a13.3513 13.3513 0 0 0 13.2674 12.868h.5046a14.9921 14.9921 0 0 0 9.7139-3.5955v-.1051l-1.766-2.8806-.189.1051a11.5014 11.5014 0 0 1-7.7378 3.0909 9.672 9.672 0 0 1-9.8823-9.9874h19.7641v-2.0606c.19-7.4222-4.121-12.153-10.7019-12.153Zm-8.8519 10.9125a8.6628 8.6628 0 0 1 8.6417-7.6325c3.3011 0 6.9171 1.9765 7.2121 7.6325H87.8682ZM130.36 15.4538v1.3667a9.3144 9.3144 0 0 0-7.927-4.5206h-.484c-7.001 0-11.837 5.5508-11.837 13.6879s4.626 13.8141 11.522 13.8141a9.6306 9.6306 0 0 0 8.768-4.7519v4.016h3.701V2.67h-3.743v12.7838Zm-8.032 20.8999c-4.836 0-8.032-4.2052-8.032-10.3028s3.385-10.1976 8.137-10.1976c3.932 0 7.927 3.1959 7.927 10.1976 0 7.5904-4.205 10.3028-8.116 10.3028h.084ZM156.748 15.9584v.2103c-.736-1.2406-2.986-3.9109-8.41-3.9109-6.897 0-11.439 5.2565-11.439 13.2885 0 8.0319 4.752 13.4777 11.754 13.4777a8.7469 8.7469 0 0 0 8.137-4.2052v3.6165c0 5.0462-3.196 7.9268-8.873 7.9268a15.35 15.35 0 0 1-7.044-1.6611l-.189-.1051-1.451 3.196.211.1051a19.4711 19.4711 0 0 0 8.536 2.1026c6.077 0 12.616-3.0908 12.616-11.6484V13.1199h-3.848v2.8385Zm-7.632 19.7855c-5.047 0-8.411-3.9108-8.411-9.9874 0-6.0765 2.881-9.693 7.822-9.693 5.446 0 8.032 3.196 8.032 9.693 0 6.4971-2.502 9.9874-7.443 9.9874ZM176.116 12.3633c-7.632 0-12.889 5.656-12.889 13.6879v.9252a13.393 13.393 0 0 0 4.069 9.2 13.3928 13.3928 0 0 0 9.325 3.7731h.525a14.9704 14.9704 0 0 0 9.672-3.6165l-1.787-3.0698h-.21a11.4594 11.4594 0 0 1-7.717 3.0908 9.6915 9.6915 0 0 1-3.843-.7025 9.6798 9.6798 0 0 1-3.254-2.1632 9.6824 9.6824 0 0 1-2.136-3.2722 9.7036 9.7036 0 0 1-.67-3.8495h19.933v-2.0605c0-7.212-4.332-11.9428-11.018-11.9428Zm-8.768 10.9125a8.6851 8.6851 0 0 1 2.879-5.4644 8.686 8.686 0 0 1 5.784-2.1681c3.28 0 6.896 1.9765 7.191 7.6325h-15.854ZM203.195 12.8685c-.526 0-.925 0-1.451-.2103a8.8286 8.8286 0 0 0-5.029 1.7516 8.826 8.826 0 0 0-3.108 4.3249v-5.8662h-3.806V39.13h3.911V28.1124c.014-1.6936.29-3.3747.82-4.9832 1.241-4.016 4.016-6.5812 7.317-6.5812a6.171 6.171 0 0 1 1.241 0h.21v-3.6795h-.105Z"
    fill="#142533"/>
</svg>
