<svg fill="none" xmlns="http://www.w3.org/2000/svg" viewBox="0 0 252 65">
  <g clip-path="url(#a)">
    <path d="M101.322 30.2182c0 1.2145-.126 2.3789-.377 3.4931-.252 1.1018-.617 2.1348-1.0945 3.0988-.4653.964-1.0375 1.8529-1.7167 2.6667-.6791.8014-1.4526 1.5087-2.3202 2.1222l6.9234 7.5121h-4.1881c-.6038 0-1.1508-.0813-1.6413-.2441-.4778-.1628-.9181-.4632-1.3205-.9015l-3.9993-4.3945a14.5802 14.5802 0 0 1-1.9807.3943c-.6666.0877-1.3646.1314-2.094.1314-2.0626 0-3.949-.3442-5.6594-1.0327-1.6978-.7012-3.1567-1.6716-4.3766-2.911-1.2073-1.2395-2.1443-2.7045-2.8108-4.3946-.6666-1.7027-.9998-3.5494-.9998-5.5402 0-1.9907.3332-3.8312.9998-5.5214.6665-1.7027 1.6035-3.1738 2.8108-4.4133 1.2199-1.2395 2.6788-2.2035 4.3766-2.8922 1.7104-.7012 3.5968-1.0517 5.6594-1.0517 2.0625 0 3.9427.3505 5.6405 1.0517 1.6978.7011 3.1504 1.6715 4.3578 2.911 1.2072 1.2269 2.1442 2.6918 2.8106 4.3945.667 1.6902 1 3.5307 1 5.5214Zm-5.2067 0c0-1.4899-.2012-2.8233-.6036-4.0002-.3899-1.1894-.9558-2.1973-1.6978-3.0235-.742-.8264-1.6476-1.4586-2.7166-1.8969-1.0563-.4382-2.2512-.6573-3.5842-.6573-1.3331 0-2.5342.2191-3.6032.6573-1.0689.4383-1.9808 1.0705-2.7353 1.8969-.7421.8262-1.3142 1.8341-1.7168 3.0235-.4024 1.1769-.6036 2.5103-.6036 4.0002 0 1.49.2012 2.8295.6036 4.019.4026 1.1768.9747 2.1786 1.7168 3.0048.7545.8138 1.6664 1.4398 2.7353 1.878 1.069.4383 2.2701.6574 3.6032.6574 1.333 0 2.5279-.2191 3.5842-.6574 1.069-.4382 1.9746-1.0642 2.7166-1.878.742-.8262 1.3079-1.828 1.6978-3.0048.4024-1.1895.6036-2.529.6036-4.019ZM107.825 24.5278v12.2447c0 1.177.27 2.0909.811 2.7419.553.6386 1.377.9578 2.471.9578.805 0 1.56-.1752 2.264-.5258.704-.3631 1.371-.8577 2-1.4837V24.5278h4.659v19.2685h-2.849c-.603 0-.999-.2817-1.188-.8451l-.321-1.54c-.402.4007-.817.7701-1.245 1.1081a8.0665 8.0665 0 0 1-1.377.8451c-.478.2253-1 .4007-1.566.5258-.553.1378-1.15.2065-1.792.2065-1.056 0-1.993-.1752-2.811-.5257-.804-.3632-1.484-.8702-2.037-1.5212-.553-.6511-.975-1.421-1.264-2.3099-.277-.9015-.415-1.8907-.415-2.9674V24.5278h4.66ZM128.456 24.5279v19.2684h-4.66V24.5279h4.66Zm.698-5.6153c0 .4005-.082.7762-.245 1.1268-.164.3506-.384.6572-.661.9202-.264.2629-.578.4757-.943.6385-.365.1502-.754.2253-1.169.2253-.403 0-.786-.0751-1.151-.2253-.352-.1628-.66-.3756-.924-.6385-.265-.263-.478-.5696-.642-.9202-.151-.3506-.226-.7263-.226-1.1268 0-.4133.075-.8014.226-1.1644.164-.3631.377-.6761.642-.939.264-.2629.572-.4696.924-.6198a2.7922 2.7922 0 0 1 1.151-.2441c.415 0 .804.0813 1.169.2441.365.1502.679.3569.943.6198.277.2629.497.5759.661.939.163.363.245.7511.245 1.1644ZM145.829 28.603c-.139.1754-.278.3131-.416.4133-.126.1001-.314.1502-.565.1502-.24 0-.472-.0689-.699-.2065-.226-.1503-.496-.313-.811-.4884-.314-.1878-.691-.3506-1.132-.4882-.427-.1502-.962-.2254-1.603-.2254-.818 0-1.534.1503-2.151.4507-.616.288-1.132.7074-1.547 1.2583-.402.5509-.704 1.2207-.905 2.0095-.201.7762-.302 1.6589-.302 2.6479 0 1.0267.107 1.9408.321 2.742.226.8013.547 1.4774.962 2.0283.415.5384.918.9515 1.509 1.2395.591.2754 1.258.4131 2 .4131s1.339-.0875 1.792-.2629c.465-.1878.855-.3881 1.169-.6009.315-.2255.585-.4258.812-.601.238-.1878.503-.2817.792-.2817.377 0 .66.1439.849.4319l1.339 1.6903c-.516.6009-1.075 1.108-1.679 1.5211-.603.4007-1.232.7262-1.886.9766-.641.2379-1.308.4069-2 .507a14.304 14.304 0 0 1-2.056.1503c-1.195 0-2.32-.219-3.377-.6573-1.056-.4508-1.981-1.1018-2.773-1.9531-.78-.8514-1.402-1.8905-1.868-3.1176-.452-1.2395-.679-2.6479-.679-4.2256 0-1.4147.202-2.723.604-3.925.415-1.2144 1.019-2.2598 1.811-3.1363.792-.8889 1.773-1.5838 2.943-2.0846 1.17-.5008 2.515-.7511 4.037-.7511 1.446 0 2.71.2315 3.792.6948 1.094.4632 2.075 1.1268 2.943 1.9907l-1.226 1.6901ZM153.415 15.8889v15.9819h.867c.314 0 .56-.0437.736-.1314.176-.0876.364-.2503.565-.4882l4.811-5.9158c.214-.2504.441-.4446.679-.5822.239-.1502.554-.2253.944-.2253h4.264l-6.019 7.1552a9.3342 9.3342 0 0 1-.661.7324c-.225.2128-.47.4007-.735.5634.265.1879.497.4069.698.6573.201.2505.403.5196.604.8076l6.452 9.3525h-4.208c-.364 0-.673-.0625-.924-.1878-.251-.1252-.478-.338-.679-.6386l-4.924-7.3054c-.188-.288-.377-.4758-.565-.5635-.189-.0875-.472-.1314-.849-.1314h-1.056v8.8267h-4.66V15.8889h4.66ZM170.931 16.6402c.227 0 .415.0124.567.0375.15.0124.283.05.395.1127.126.0501.246.1314.359.2441.114.1001.239.2379.377.4131l14.318 18.1606c-.05-.4383-.088-.8639-.112-1.2771a38.8542 38.8542 0 0 1-.019-1.1831V16.6402h4.471v27.1561h-2.622c-.403 0-.737-.0625-1.001-.1878-.263-.1252-.522-.3505-.773-.6761l-14.262-18.0853c.039.4007.063.8012.076 1.2019.025.3881.038.745.038 1.0705v16.6768h-4.471V16.6402h2.659ZM203.278 24.2274c1.447 0 2.755.2315 3.925.6948 1.181.4632 2.188 1.1206 3.018 1.9719.83.8514 1.471 1.8905 1.924 3.1176.453 1.2269.679 2.5978.679 4.1127 0 1.5275-.226 2.9048-.679 4.1317-.453 1.2271-1.094 2.2724-1.924 3.1363-.83.864-1.837 1.5275-3.018 1.9908-1.17.4632-2.478.6948-3.925.6948-1.446 0-2.76-.2316-3.942-.6948-1.183-.4633-2.194-1.1268-3.038-1.9908-.829-.8639-1.477-1.9092-1.942-3.1363-.452-1.2269-.679-2.6042-.679-4.1317 0-1.5149.227-2.8858.679-4.1127.465-1.2271 1.113-2.2662 1.942-3.1176.844-.8513 1.855-1.5087 3.038-1.9719 1.182-.4633 2.496-.6948 3.942-.6948Zm0 16.2823c1.611 0 2.799-.5383 3.566-1.615.78-1.0768 1.17-2.6543 1.17-4.7326 0-2.0784-.39-3.6622-1.17-4.7515-.767-1.0892-1.955-1.6338-3.566-1.6338-1.634 0-2.841.5509-3.621 1.6526-.78 1.0893-1.17 2.6669-1.17 4.7327 0 2.0657.39 3.6434 1.17 4.7326.78 1.0767 1.987 1.615 3.621 1.615ZM228.57 43.7963c-.604 0-1-.2817-1.188-.8451l-.378-1.8592c-.402.4507-.823.8576-1.264 1.2207a7.793 7.793 0 0 1-1.433.939c-.502.2629-1.05.4633-1.641.6009-.579.1503-1.207.2254-1.886.2254-1.057 0-2.025-.219-2.906-.6573-.88-.4382-1.641-1.0704-2.283-1.8968-.628-.8388-1.119-1.8717-1.471-3.0988-.34-1.2269-.509-2.6291-.509-4.2066 0-1.4274.195-2.7546.585-3.9815.389-1.2269.949-2.2912 1.679-3.1926.729-.9015 1.603-1.6027 2.621-2.1034 1.02-.5134 2.164-.7701 3.434-.7701 1.082 0 2.006.1754 2.773.5259.767.338 1.453.7951 2.057 1.371V15.8889h4.658v27.9074h-2.848Zm-6.206-3.3992c.968 0 1.792-.2003 2.47-.6009.681-.4007 1.322-.9704 1.926-1.7091v-8.6389c-.529-.6384-1.108-1.0893-1.736-1.3521-.617-.2629-1.283-.3944-1.999-.3944-.705 0-1.347.1315-1.924.3944-.567.2628-1.051.6635-1.454 1.2019-.39.5259-.691 1.2019-.905 2.0283-.214.8138-.321 1.7778-.321 2.8922 0 1.1268.088 2.0845.264 2.8733.188.7762.453 1.4148.792 1.9156.339.4882.755.8451 1.245 1.0705.491.2127 1.039.3192 1.642.3192ZM242.958 24.2274c1.221 0 2.34.194 3.358.5821 1.032.3881 1.919.9578 2.66 1.7091.742.7387 1.321 1.6526 1.736 2.7418.414 1.0767.622 2.31.622 3.6997 0 .3505-.018.6448-.056.8827-.026.2253-.082.4069-.17.5447-.075.1251-.182.2191-.321.2816-.139.0502-.313.0751-.527.0751h-11.962c.139 1.9782.673 3.4306 1.605 4.3571.93.9264 2.162 1.3897 3.696 1.3897.756 0 1.403-.0877 1.945-.2629.553-.1754 1.03-.3694 1.433-.5823.414-.2127.774-.4069 1.076-.5821.313-.1753.615-.2629.904-.2629.189 0 .352.0376.491.1127s.257.1816.358.3192l1.358 1.6903c-.516.6009-1.093 1.108-1.735 1.5211-.641.4007-1.314.7262-2.018.9766-.692.2379-1.402.4069-2.132.507-.718.1003-1.415.1503-2.094.1503-1.346 0-2.597-.219-3.754-.6573-1.157-.4508-2.163-1.108-3.019-1.9719-.855-.8764-1.527-1.9532-2.018-3.2302-.491-1.2896-.735-2.7794-.735-4.4697 0-1.3146.214-2.5479.641-3.6997.428-1.1643 1.037-2.1723 1.83-3.0236.805-.864 1.78-1.5463 2.924-2.0471 1.157-.5008 2.458-.7511 3.904-.7511Zm.095 3.3241c-1.359 0-2.42.3818-3.189 1.1456-.767.7637-1.257 1.8467-1.47 3.2488h8.753c0-.6009-.082-1.1643-.246-1.6901-.163-.5384-.414-1.008-.755-1.4085-.339-.4007-.767-.7137-1.283-.939-.515-.2379-1.119-.3568-1.81-.3568Z" fill="#11151A"/>
    <path d="M32.5948 51.973c-11.1863 0-20.2384-8.8991-20.2384-19.8959 0-10.9969 9.0521-19.8959 20.2384-19.8959 14.6969 0 24.2997 14.8204 18.6206 27.7798l-12.9415-4.1619 18.2764 17.9672c5.3694-5.7184 8.6392-13.3317 8.6392-21.723C65.1895 14.3467 50.5959 0 32.5948 0S0 14.3467 0 32.0433c0 17.6964 14.5937 32.0431 32.5948 32.0431 6.2986 0 12.1499-1.7595 17.1406-4.7709L64.2258 65 45.9494 46.9989c-3.5797 3.0791-8.2607 4.9741-13.3546 4.9741Z" fill="#40C6F0"/>
  </g>
  <defs>
    <clipPath id="a">
      <path fill="#fff" d="M0 0h251.333v65H0z"/>
    </clipPath>
  </defs>
</svg>
