<svg xmlns="http://www.w3.org/2000/svg" fill="none" viewBox="13.73 6.57 203.82 57.32">
  <path d="M33.4944 6.569c-7.8544 0-14.2224 6.3676-14.2224 14.2222v5.3177c-2.7563.493-5.538 1.174-5.538 2.0443v27.862s0 .7814.851 1.1197c3.1424 1.2503 15.4794 5.623 18.3107 6.6243.373.132.4517.1284.581.1284.136 0 .2063.0046.5763-.1264 2.826-.999 15.2057-5.3826 18.3284-6.619.811-.321.8343-1.1156.8343-1.1156v-27.872c0-.87-2.743-1.5527-5.4997-2.046v-5.3177c.0004-7.8543-6.3673-14.222-14.2216-14.222Zm0 6.7969c4.62 0 7.4306 2.8053 7.4306 7.4253v4.6327c-5.2163-.38-9.649-.38-14.866 0v-4.6327c0-4.6203 2.8147-7.4253 7.4354-7.4253Zm-.0184 18.8973c6.463.0104 11.896.4917 11.896 1.4117v17.36c0 .2533-.04.296-.2803.387-.24.0913-11.0497 3.9977-11.0497 3.9977s-.4436.1473-.5656.1473c-.1384 0-.5824-.1533-.5824-.1533s-10.805-3.9027-11.0476-3.9944c-.243-.0913-.2744-.1386-.2744-.394v-17.351c0-.945 5.4414-1.4213 11.904-1.411ZM71.5351 51.2798V32.259h-6.9333v-6.8177h21.6548v6.8177h-6.8961v19.0208h-7.8254ZM103.805 51.2798l-3.564-8.1348h-2.8278v8.1348h-7.8248V25.4413h13.7906c6.042 0 9.297 4.0285 9.297 8.8707 0 4.456-2.596 6.818-4.648 7.8254l4.687 9.142h-8.91v.0004Zm.929-17.007c0-1.3938-1.239-2.0144-2.557-2.0144h-4.7648v4.0674h4.7648c1.318-.0004 2.557-.6187 2.557-2.053ZM116.775 51.2798V25.4413h19.602v6.8177H124.6v2.557h11.506v6.8186H124.6v2.8268h11.777v6.8184h-19.602ZM140.448 51.2845v-6.1977l9.839-12.8227h-9.839v-6.8177h20.182v6.1592l-9.879 12.8612h10.15v6.8177h-20.453ZM162.819 38.3854c0-7.9419 6.159-13.3652 14.139-13.3652 7.979 0 14.14 5.4233 14.14 13.3652 0 7.9407-6.161 13.364-14.14 13.364-7.98 0-14.139-5.4233-14.139-13.364Zm20.338 0c0-3.6035-2.441-6.4698-6.199-6.4698-3.757 0-6.199 2.8666-6.199 6.4698 0 3.6023 2.441 6.4682 6.199 6.4682s6.199-2.8666 6.199-6.4682ZM208.648 51.2845l-3.562-8.1347h-2.829v8.1347h-7.826V25.4464h13.792c6.044 0 9.298 4.0285 9.298 8.8703 0 4.4561-2.597 6.8181-4.65 7.826l4.687 9.1421h-8.91v-.0003Zm.93-17.0066c0-1.3942-1.239-2.0144-2.557-2.0144h-4.765v4.0673h4.765c1.317.0003 2.557-.6187 2.557-2.0529Z" fill="#000"/>
</svg>
