<svg fill="none" xmlns="http://www.w3.org/2000/svg" viewBox="0 0 256 58">
  <path d="M88.646 25.308c-2.288 0-4.0663-.6233-5.335-1.87-1.2687-1.2467-1.903-3.014-1.903-5.302V9.6h4.356v8.404c0 2.464.9753 3.696 2.926 3.696 1.936 0 2.904-1.232 2.904-3.696V9.6h4.29v8.536c0 2.288-.6343 4.0553-1.903 5.302-1.2687 1.2467-3.047 1.87-5.335 1.87ZM113.484 9.6V25h-3.586l-6.798-8.206V25h-4.268V9.6h3.586l6.798 8.206V9.6h4.268Zm8.492 15.708c-1.247 0-2.457-.154-3.63-.462-1.173-.308-2.127-.7187-2.86-1.232l1.43-3.212c.689.4547 1.489.8213 2.398 1.1.909.2787 1.804.418 2.684.418 1.672 0 2.508-.418 2.508-1.254 0-.44-.238-.7663-.715-.979s-1.243-.4363-2.299-.671c-1.159-.2493-2.127-.517-2.904-.803-.777-.286-1.445-.7443-2.002-1.375-.557-.6307-.836-1.4813-.836-2.552 0-.9387.257-1.7857.77-2.541.513-.7553 1.28-1.353 2.299-1.793 1.019-.44 2.27-.66 3.751-.66 1.012 0 2.009.1137 2.992.341.983.2273 1.848.561 2.596 1.001l-1.342 3.234c-1.467-.792-2.889-1.188-4.268-1.188-.865 0-1.496.1283-1.892.385-.396.2567-.594.5903-.594 1.001 0 .4107.235.7187.704.924.469.2053 1.225.418 2.266.638 1.173.2493 2.145.517 2.915.803.77.286 1.437.7407 2.002 1.364.565.6233.847 1.4703.847 2.541 0 .924-.257 1.76-.77 2.508s-1.283 1.3457-2.31 1.793c-1.027.4473-2.273.671-3.74.671Zm12.1-12.254h-4.73V9.6h13.794v3.454h-4.708V25h-4.356V13.054Zm18.458 12.254c-1.628 0-3.091-.3447-4.389-1.034s-2.317-1.6427-3.058-2.86c-.741-1.2173-1.111-2.5887-1.111-4.114s.37-2.8967 1.111-4.114c.741-1.2173 1.76-2.1707 3.058-2.86 1.298-.6893 2.761-1.034 4.389-1.034 1.628 0 3.091.3447 4.389 1.034s2.317 1.6427 3.058 2.86c.741 1.2173 1.111 2.5887 1.111 4.114s-.37 2.8967-1.111 4.114c-.741 1.2173-1.76 2.1707-3.058 2.86-1.298.6893-2.761 1.034-4.389 1.034Zm0-3.608c.777 0 1.481-.1833 2.112-.55s1.129-.8837 1.496-1.551c.367-.6673.55-1.4337.55-2.299s-.183-1.6317-.55-2.299c-.367-.6673-.865-1.1843-1.496-1.551s-1.335-.55-2.112-.55c-.777 0-1.481.1833-2.112.55s-1.129.8837-1.496 1.551c-.367.6673-.55 1.4337-.55 2.299s.183 1.6317.55 2.299c.367.6673.865 1.1843 1.496 1.551s1.335.55 2.112.55ZM170.42 9.6c1.393 0 2.603.231 3.63.693 1.027.462 1.819 1.122 2.376 1.98.557.858.836 1.8663.836 3.025 0 1.1587-.279 2.1633-.836 3.014-.557.8507-1.349 1.507-2.376 1.969-1.027.462-2.237.693-3.63.693h-2.684V25h-4.356V9.6h7.04Zm-.264 7.942c.895 0 1.569-.1943 2.024-.583.455-.3887.682-.9423.682-1.661s-.227-1.276-.682-1.672c-.455-.396-1.129-.594-2.024-.594h-2.42v4.51h2.42ZM186.634 9.6c1.393 0 2.603.231 3.63.693 1.027.462 1.819 1.122 2.376 1.98.557.858.836 1.8663.836 3.025 0 1.1587-.279 2.1633-.836 3.014-.557.8507-1.349 1.507-2.376 1.969-1.027.462-2.237.693-3.63.693h-2.684V25h-4.356V9.6h7.04Zm-.264 7.942c.895 0 1.569-.1943 2.024-.583.455-.3887.682-.9423.682-1.661s-.227-1.276-.682-1.672c-.455-.396-1.129-.594-2.024-.594h-2.42v4.51h2.42Zm19.756 4.466h-6.512L198.404 25h-4.444l6.798-15.4h4.29l6.82 15.4h-4.532l-1.21-2.992Zm-1.276-3.212-1.98-4.928-1.98 4.928h3.96Zm20.086-1.826c.88.308 1.569.7883 2.068 1.441.499.6527.748 1.441.748 2.365 0 1.3493-.543 2.3907-1.628 3.124-1.085.7333-2.655 1.1-4.708 1.1H213.1V9.6h7.876c1.965 0 3.461.363 4.488 1.089 1.027.726 1.54 1.705 1.54 2.937 0 .7333-.18 1.3897-.539 1.969-.359.5793-.869 1.0377-1.529 1.375Zm-7.524-4.224v2.97h2.992c1.467 0 2.2-.4987 2.2-1.496 0-.9827-.733-1.474-2.2-1.474h-2.992Zm3.652 9.108c1.525 0 2.288-.5207 2.288-1.562 0-1.0413-.763-1.562-2.288-1.562h-3.652v3.124h3.652ZM230.018 9.6h4.356v11.946h7.348V25h-11.704V9.6Zm25.784 12.034V25h-12.364V9.6h12.078v3.366h-7.766v2.596h6.842v3.256h-6.842v2.816h8.052ZM81.54 33.6h7.282c1.6867 0 3.1827.3153 4.488.946 1.3053.6307 2.3173 1.5253 3.036 2.684.7187 1.1587 1.078 2.5153 1.078 4.07 0 1.5547-.3593 2.9113-1.078 4.07-.7187 1.1587-1.7307 2.0533-3.036 2.684-1.3053.6307-2.8013.946-4.488.946H81.54V33.6Zm7.106 11.924c1.32 0 2.3797-.374 3.179-1.122.7993-.748 1.199-1.782 1.199-3.102 0-1.32-.3997-2.354-1.199-3.102-.7993-.748-1.859-1.122-3.179-1.122h-2.75v8.448h2.75Zm18.832 3.784c-1.628 0-3.091-.3447-4.389-1.034s-2.317-1.6427-3.058-2.86c-.7407-1.2173-1.111-2.5887-1.111-4.114s.3703-2.8967 1.111-4.114c.741-1.2173 1.76-2.1707 3.058-2.86 1.298-.6893 2.761-1.034 4.389-1.034 1.628 0 3.091.3447 4.389 1.034s2.317 1.6427 3.058 2.86c.741 1.2173 1.111 2.5887 1.111 4.114s-.37 2.8967-1.111 4.114c-.741 1.2173-1.76 2.1707-3.058 2.86-1.298.6893-2.761 1.034-4.389 1.034Zm0-3.608c.777 0 1.481-.1833 2.112-.55s1.129-.8837 1.496-1.551c.367-.6673.55-1.4337.55-2.299s-.183-1.6317-.55-2.299c-.367-.6673-.865-1.1843-1.496-1.551s-1.335-.55-2.112-.55c-.777 0-1.481.1833-2.112.55s-1.129.8837-1.496 1.551c-.367.6673-.55 1.4337-.55 2.299s.183 1.6317.55 2.299c.367.6673.865 1.1843 1.496 1.551s1.335.55 2.112.55Zm24.75 3.3-.044-8.162-3.96 6.644h-1.936l-3.938-6.424V49h-4.026V33.6h3.586l5.412 8.888 5.28-8.888h3.586l.044 15.4h-4.004Zm17.402-2.992h-6.512L141.908 49h-4.444l6.798-15.4h4.29l6.82 15.4h-4.532l-1.21-2.992Zm-1.276-3.212-1.98-4.928-1.98 4.928h3.96Zm8.25-9.196h4.356V49h-4.356V33.6Zm22.11 0V49h-3.586l-6.798-8.206V49h-4.268V33.6h3.586l6.798 8.206V33.6h4.268Zm8.492 15.708c-1.247 0-2.457-.154-3.63-.462-1.173-.308-2.127-.7187-2.86-1.232l1.43-3.212c.689.4547 1.489.8213 2.398 1.1.909.2787 1.804.418 2.684.418 1.672 0 2.508-.418 2.508-1.254 0-.44-.238-.7663-.715-.979s-1.243-.4363-2.299-.671c-1.159-.2493-2.127-.517-2.904-.803-.777-.286-1.445-.7443-2.002-1.375-.557-.6307-.836-1.4813-.836-2.552 0-.9387.257-1.7857.77-2.541.513-.7553 1.28-1.353 2.299-1.793 1.019-.44 2.27-.66 3.751-.66 1.012 0 2.009.1137 2.992.341.983.2273 1.848.561 2.596 1.001l-1.342 3.234c-1.467-.792-2.889-1.188-4.268-1.188-.865 0-1.496.1283-1.892.385-.396.2567-.594.5903-.594 1.001 0 .4107.235.7187.704.924.469.2053 1.225.418 2.266.638 1.173.2493 2.145.517 2.915.803.77.286 1.437.7407 2.002 1.364.565.6233.847 1.4703.847 2.541 0 .924-.257 1.76-.77 2.508s-1.283 1.3457-2.31 1.793c-1.027.4473-2.273.671-3.74.671Z" fill="#010617"/>
  <path fill-rule="evenodd" clip-rule="evenodd" d="M64 1v22L0 49 64 1Z" fill="#2FE9FF"/>
  <path fill-rule="evenodd" clip-rule="evenodd" d="M52 0v38c0 11.0457-8.9543 20-20 20s-20-8.9543-20-20V22l12-6.6V38c0 3.866 3.134 7 7 7s7-3.134 7-7V7.7L52 0Z" fill="#4C47F7"/>
</svg>
