<?xml version="1.0" encoding="UTF-8"?>
<svg width="479px" height="220px" viewBox="0 0 479 220" version="1.1" xmlns="http://www.w3.org/2000/svg" xmlns:xlink="http://www.w3.org/1999/xlink">
    <!-- Generator: Sketch 60 (88103) - https://sketch.com -->
    <title>Group 21 Copy</title>
    <desc>Created with Sketch.</desc>
    <defs>
        <rect id="path-1" x="0" y="0" width="498" height="220" rx="2"></rect>
    </defs>
    <g id="Page-1" stroke="none" stroke-width="1" fill="none" fill-rule="evenodd">
        <g id="Group-21-Copy">
            <mask id="mask-2" fill="white">
                <use xlink:href="#path-1"></use>
            </mask>
            <g id="Rectangle-Copy-4"></g>
            <g id="Group-18" mask="url(#mask-2)">
                <g transform="translate(-76.000000, -231.000000)">
                    <path d="M31.1144204,492.887652 C77.6139134,444.732183 141.955873,410.880248 180.955873,439.515212 C219.955873,468.150177 169.455873,529.943912 183.455873,579.515212 C197.455873,629.086513 288.583192,641.268487 222.455873,683.515212 C156.328554,725.761938 91.7330473,719.751727 41.8217383,685 C-8.08957071,650.248273 -15.3850726,541.043121 31.1144204,492.887652 Z" id="Path-17" fill="#C8ADFF"></path>
                    <path d="M39,356 L39,2 L188,2 L188,204.869532 C188,288.337691 131.312893,356 61.3869172,356 L39,356" id="Fill-7" fill="#77E1F2"></path>
                    <path d="M83.9735435,375 C42.2767196,375 8.47439052,408.80195 8.47439052,450.5 C8.47439052,492.19805 42.2767196,526 83.9735435,526 C125.672061,526 159.474391,492.19805 159.474391,450.5 C159.474391,408.80195 125.672061,375 83.9735435,375 Z M83.9735431,397 C113.473836,397 137.474391,421.000174 137.474391,450.5 C137.474391,479.999826 113.473836,504 83.9735431,504 C54.4732501,504 30.4743905,479.999826 30.4743905,450.5 C30.4743905,421.000174 54.4732501,397 83.9735431,397 L83.9735431,397 Z" id="Fill-10" fill="#FFD04E"></path>
                    <path d="M523.474391,375.50086 C523.474391,361.416473 512.281393,350 498.474391,350 C484.667388,350 473.474391,361.416473 473.474391,375.50086 C473.474391,389.581807 484.667388,401 498.474391,401 C512.281393,401 523.474391,389.581807 523.474391,375.50086" id="Fill-17" fill="#007A99"></path>
                    <g id="Group-16" stroke-width="1" fill="none" transform="translate(484.474391, 304.000000)">
                        <polygon id="Path-16" fill="#77E1F2" transform="translate(11.886191, 16.662294) rotate(99.000000) translate(-11.886191, -16.662294) " points="-3 15.4053764 22.7760888 7 26.7723817 17.1582414 1.7512811 26.3245885"></polygon>
                        <polygon id="Path-16-Copy" fill="#77E1F2" transform="translate(37.886191, 17.662294) rotate(135.000000) translate(-37.886191, -17.662294) " points="23 16.4053764 48.7760888 8 52.7723817 18.1582414 27.7512811 27.3245885"></polygon>
                        <polygon id="Path-16-Copy-2" fill="#027999" transform="translate(54.886191, 36.662294) rotate(168.000000) translate(-54.886191, -36.662294) " points="40 35.4053764 65.7760888 27 69.7723817 37.1582414 44.7512811 46.3245885"></polygon>
                    </g>
                </g>
            </g>
        </g>
    </g>
</svg>