<?xml version="1.0" encoding="UTF-8"?>
<svg width="498px" height="220px" viewBox="0 0 498 220" version="1.1" xmlns="http://www.w3.org/2000/svg" xmlns:xlink="http://www.w3.org/1999/xlink">
    <!-- Generator: Sketch 60 (88103) - https://sketch.com -->
    <title>Group 22 Copy</title>
    <desc>Created with Sketch.</desc>
    <defs>
        <rect id="path-1" x="0" y="0" width="498" height="220" rx="2"></rect>
    </defs>
    <g id="Page-1" stroke="none" stroke-width="1" fill="none" fill-rule="evenodd">
        <g id="Group-22-Copy">
            <mask id="mask-2" fill="white">
                <use xlink:href="#path-1"></use>
            </mask>
            <g id="Rectangle-Copy-3"></g>
            <rect id="Rectangle" fill="#77E1F2" mask="url(#mask-2)" transform="translate(474.500000, 211.500000) rotate(-13.000000) translate(-474.500000, -211.500000) " x="420" y="157" width="109" height="109"></rect>
            <path d="M-45.8855796,31.8876522 C0.613913351,-16.2678167 64.9558732,-50.1197523 103.955873,-21.4847875 C142.955873,7.15017718 92.4558732,68.9439123 106.455873,118.515212 C120.455873,168.086513 211.583192,180.268487 145.455873,222.515212 C79.3285543,264.761938 14.7330473,258.751727 -35.1782617,224 C-85.0895707,189.248273 -92.3850726,80.0431212 -45.8855796,31.8876522 Z" id="Path-17" fill="#C8ADFF" mask="url(#mask-2)"></path>
            <path d="M8.49915295,-87 C-33.1976709,-87 -67,-53.1980501 -67,-11.5 C-67,30.1980501 -33.1976709,64 8.49915295,64 C50.1976709,64 84,30.1980501 84,-11.5 C84,-53.1980501 50.1976709,-87 8.49915295,-87 Z M8.49915258,-65 C37.9994456,-65 62,-40.9998258 62,-11.5 C62,17.9998258 37.9994456,42 8.49915258,42 C-21.0011404,42 -45,17.9998258 -45,-11.5 C-45,-40.9998258 -21.0011404,-65 8.49915258,-65 L8.49915258,-65 Z" id="Fill-10" fill="#FFD04E" mask="url(#mask-2)"></path>
        </g>
    </g>
</svg>